G04 #@! TF.GenerationSoftware,KiCad,Pcbnew,(5.1.2-1)-1*
G04 #@! TF.CreationDate,2023-04-27T09:28:52+02:00*
G04 #@! TF.ProjectId,vco,76636f2e-6b69-4636-9164-5f7063625858,rev?*
G04 #@! TF.SameCoordinates,Original*
G04 #@! TF.FileFunction,Legend,Top*
G04 #@! TF.FilePolarity,Positive*
%FSLAX46Y46*%
G04 Gerber Fmt 4.6, Leading zero omitted, Abs format (unit mm)*
G04 Created by KiCad (PCBNEW (5.1.2-1)-1) date 2023-04-27 09:28:52*
%MOMM*%
%LPD*%
G04 APERTURE LIST*
%ADD10C,0.120000*%
%ADD11C,0.150000*%
G04 APERTURE END LIST*
D10*
X86401600Y-51603400D02*
G75*
G02X86401600Y-53603400I0J-1000000D01*
G01*
X86401600Y-53603400D02*
X86401600Y-54853400D01*
X86401600Y-54853400D02*
X96681600Y-54853400D01*
X96681600Y-54853400D02*
X96681600Y-50353400D01*
X96681600Y-50353400D02*
X86401600Y-50353400D01*
X86401600Y-50353400D02*
X86401600Y-51603400D01*
X-12920000Y2880000D02*
X-12920000Y9121000D01*
X-2920000Y2880000D02*
X-2920000Y9121000D01*
X-2920000Y9121000D02*
X-12920000Y9121000D01*
X-2920000Y2880000D02*
X-12920000Y2880000D01*
X-2920000Y2380000D02*
X-2920000Y9620000D01*
X2080000Y2380000D02*
X2080000Y9620000D01*
X2080000Y9620000D02*
X-2920000Y9620000D01*
X2080000Y2380000D02*
X-2920000Y2380000D01*
X2080000Y-3070000D02*
X2080000Y15070000D01*
X12820000Y-3070000D02*
X12820000Y15070000D01*
X12820000Y15070000D02*
X2080000Y15070000D01*
X12820000Y-3070000D02*
X2080000Y-3070000D01*
X-12920000Y-27120000D02*
X-12920000Y-20879000D01*
X-2920000Y-27120000D02*
X-2920000Y-20879000D01*
X-2920000Y-20879000D02*
X-12920000Y-20879000D01*
X-2920000Y-27120000D02*
X-12920000Y-27120000D01*
X-2920000Y-27620000D02*
X-2920000Y-20380000D01*
X2080000Y-27620000D02*
X2080000Y-20380000D01*
X2080000Y-20380000D02*
X-2920000Y-20380000D01*
X2080000Y-27620000D02*
X-2920000Y-27620000D01*
X2080000Y-33070000D02*
X2080000Y-14930000D01*
X12820000Y-33070000D02*
X12820000Y-14930000D01*
X12820000Y-14930000D02*
X2080000Y-14930000D01*
X12820000Y-33070000D02*
X2080000Y-33070000D01*
X52294400Y-29613000D02*
X52294400Y-26013000D01*
X51567195Y-30137184D02*
G75*
G03X52294400Y-29613000I-1122795J2324184D01*
G01*
X49340558Y-30180199D02*
G75*
G02X48094400Y-28953000I1103842J2367199D01*
G01*
X49346029Y-25457543D02*
G75*
G03X48094400Y-26703000I1098371J-2355457D01*
G01*
X51567195Y-25488816D02*
G75*
G02X52294400Y-26013000I-1122795J-2324184D01*
G01*
X57065400Y-19177000D02*
X57755400Y-19177000D01*
X62485400Y-19177000D02*
X61795400Y-19177000D01*
X57755400Y-20597000D02*
X61795400Y-20597000D01*
X57755400Y-17757000D02*
X57755400Y-20597000D01*
X61795400Y-17757000D02*
X57755400Y-17757000D01*
X61795400Y-20597000D02*
X61795400Y-17757000D01*
X78360600Y-32353000D02*
X81100600Y-32353000D01*
X81100600Y-32353000D02*
X81100600Y-25813000D01*
X81100600Y-25813000D02*
X78360600Y-25813000D01*
X78360600Y-25813000D02*
X78360600Y-32353000D01*
X79730600Y-33123000D02*
X79730600Y-32353000D01*
X79730600Y-25043000D02*
X79730600Y-25813000D01*
X9287200Y-53298400D02*
X11947200Y-53298400D01*
X9287200Y-45618400D02*
X9287200Y-53298400D01*
X11947200Y-45618400D02*
X11947200Y-53298400D01*
X9287200Y-45618400D02*
X11947200Y-45618400D01*
X9287200Y-44348400D02*
X9287200Y-43018400D01*
X9287200Y-43018400D02*
X10617200Y-43018400D01*
X8769600Y-36831600D02*
X8769600Y-39571600D01*
X8769600Y-39571600D02*
X15309600Y-39571600D01*
X15309600Y-39571600D02*
X15309600Y-36831600D01*
X15309600Y-36831600D02*
X8769600Y-36831600D01*
X7999600Y-38201600D02*
X8769600Y-38201600D01*
X16079600Y-38201600D02*
X15309600Y-38201600D01*
X30698600Y-21218200D02*
X28898600Y-21218200D01*
X29798600Y-22118200D02*
X29798600Y-20318200D01*
X28598600Y-21238200D02*
X28598600Y-15998200D01*
X17358600Y-21238200D02*
X17358600Y-15998200D01*
X28598600Y-21238200D02*
X26798600Y-21238200D01*
X26798600Y-21238200D02*
X25898600Y-20338200D01*
X25898600Y-20338200D02*
X24998600Y-21238200D01*
X24998600Y-21238200D02*
X17358600Y-21238200D01*
X28598600Y-15998200D02*
X26798600Y-15998200D01*
X26798600Y-15998200D02*
X25898600Y-16898200D01*
X25898600Y-16898200D02*
X24998600Y-15998200D01*
X24998600Y-15998200D02*
X17358600Y-15998200D01*
X30538600Y-18618200D02*
X28598600Y-18618200D01*
X15418600Y-18618200D02*
X17358600Y-18618200D01*
X23021800Y-21403000D02*
G75*
G02X21021800Y-21403000I-1000000J0D01*
G01*
X21021800Y-21403000D02*
X19771800Y-21403000D01*
X19771800Y-21403000D02*
X19771800Y-31683000D01*
X19771800Y-31683000D02*
X24271800Y-31683000D01*
X24271800Y-31683000D02*
X24271800Y-21403000D01*
X24271800Y-21403000D02*
X23021800Y-21403000D01*
X7296200Y-9601200D02*
G75*
G03X7296200Y-9601200I-1251000J0D01*
G01*
X34252800Y-13154800D02*
X34252800Y-15394800D01*
X34252800Y-15394800D02*
X38492800Y-15394800D01*
X38492800Y-15394800D02*
X38492800Y-13154800D01*
X38492800Y-13154800D02*
X34252800Y-13154800D01*
X33602800Y-14274800D02*
X34252800Y-14274800D01*
X39142800Y-14274800D02*
X38492800Y-14274800D01*
X34972800Y-13154800D02*
X34972800Y-15394800D01*
X35092800Y-13154800D02*
X35092800Y-15394800D01*
X34852800Y-13154800D02*
X34852800Y-15394800D01*
X45224000Y-49576000D02*
X43260000Y-49576000D01*
X48000000Y-49576000D02*
X46214000Y-49576000D01*
X45224000Y-42626000D02*
X43260000Y-42626000D01*
X48000000Y-42626000D02*
X46214000Y-42626000D01*
X43260000Y-42626000D02*
X43260000Y-49576000D01*
X48000000Y-42626000D02*
X48000000Y-49576000D01*
X72787200Y11083600D02*
X72787200Y8423600D01*
X95707200Y11083600D02*
X72787200Y11083600D01*
X95707200Y8423600D02*
X72787200Y8423600D01*
X95707200Y11083600D02*
X95707200Y8423600D01*
X96977200Y11083600D02*
X98307200Y11083600D01*
X98307200Y11083600D02*
X98307200Y9753600D01*
X29378600Y-62728800D02*
X29378600Y-65388800D01*
X39598600Y-62728800D02*
X29378600Y-62728800D01*
X39598600Y-65388800D02*
X29378600Y-65388800D01*
X39598600Y-62728800D02*
X39598600Y-65388800D01*
X40868600Y-62728800D02*
X42198600Y-62728800D01*
X42198600Y-62728800D02*
X42198600Y-64058800D01*
X91472000Y-31929400D02*
X91472000Y-34669400D01*
X91472000Y-34669400D02*
X98012000Y-34669400D01*
X98012000Y-34669400D02*
X98012000Y-31929400D01*
X98012000Y-31929400D02*
X91472000Y-31929400D01*
X90702000Y-33299400D02*
X91472000Y-33299400D01*
X98782000Y-33299400D02*
X98012000Y-33299400D01*
X42187800Y-44710600D02*
X39447800Y-44710600D01*
X39447800Y-44710600D02*
X39447800Y-51250600D01*
X39447800Y-51250600D02*
X42187800Y-51250600D01*
X42187800Y-51250600D02*
X42187800Y-44710600D01*
X40817800Y-43940600D02*
X40817800Y-44710600D01*
X40817800Y-52020600D02*
X40817800Y-51250600D01*
X91484200Y-40282800D02*
X91484200Y-37542800D01*
X91484200Y-37542800D02*
X84944200Y-37542800D01*
X84944200Y-37542800D02*
X84944200Y-40282800D01*
X84944200Y-40282800D02*
X91484200Y-40282800D01*
X92254200Y-38912800D02*
X91484200Y-38912800D01*
X84174200Y-38912800D02*
X84944200Y-38912800D01*
X86358400Y-25305000D02*
X83618400Y-25305000D01*
X83618400Y-25305000D02*
X83618400Y-31845000D01*
X83618400Y-31845000D02*
X86358400Y-31845000D01*
X86358400Y-31845000D02*
X86358400Y-25305000D01*
X84988400Y-24535000D02*
X84988400Y-25305000D01*
X84988400Y-32615000D02*
X84988400Y-31845000D01*
X6934200Y-51487200D02*
X6934200Y-50717200D01*
X6934200Y-43407200D02*
X6934200Y-44177200D01*
X8304200Y-50717200D02*
X8304200Y-44177200D01*
X5564200Y-50717200D02*
X8304200Y-50717200D01*
X5564200Y-44177200D02*
X5564200Y-50717200D01*
X8304200Y-44177200D02*
X5564200Y-44177200D01*
X8406000Y-34086800D02*
X9176000Y-34086800D01*
X16486000Y-34086800D02*
X15716000Y-34086800D01*
X9176000Y-35456800D02*
X15716000Y-35456800D01*
X9176000Y-32716800D02*
X9176000Y-35456800D01*
X15716000Y-32716800D02*
X9176000Y-32716800D01*
X15716000Y-35456800D02*
X15716000Y-32716800D01*
X58350400Y-59336000D02*
X58350400Y-62076000D01*
X58350400Y-62076000D02*
X64890400Y-62076000D01*
X64890400Y-62076000D02*
X64890400Y-59336000D01*
X64890400Y-59336000D02*
X58350400Y-59336000D01*
X57580400Y-60706000D02*
X58350400Y-60706000D01*
X65660400Y-60706000D02*
X64890400Y-60706000D01*
X37465000Y-51969800D02*
X37465000Y-51199800D01*
X37465000Y-43889800D02*
X37465000Y-44659800D01*
X38835000Y-51199800D02*
X38835000Y-44659800D01*
X36095000Y-51199800D02*
X38835000Y-51199800D01*
X36095000Y-44659800D02*
X36095000Y-51199800D01*
X38835000Y-44659800D02*
X36095000Y-44659800D01*
X27787600Y-51995200D02*
X27787600Y-51225200D01*
X27787600Y-43915200D02*
X27787600Y-44685200D01*
X29157600Y-51225200D02*
X29157600Y-44685200D01*
X26417600Y-51225200D02*
X29157600Y-51225200D01*
X26417600Y-44685200D02*
X26417600Y-51225200D01*
X29157600Y-44685200D02*
X26417600Y-44685200D01*
X21285200Y-52020600D02*
X21285200Y-51250600D01*
X21285200Y-43940600D02*
X21285200Y-44710600D01*
X22655200Y-51250600D02*
X22655200Y-44710600D01*
X19915200Y-51250600D02*
X22655200Y-51250600D01*
X19915200Y-44710600D02*
X19915200Y-51250600D01*
X22655200Y-44710600D02*
X19915200Y-44710600D01*
X14757400Y-52020600D02*
X14757400Y-51250600D01*
X14757400Y-43940600D02*
X14757400Y-44710600D01*
X16127400Y-51250600D02*
X16127400Y-44710600D01*
X13387400Y-51250600D02*
X16127400Y-51250600D01*
X13387400Y-44710600D02*
X13387400Y-51250600D01*
X16127400Y-44710600D02*
X13387400Y-44710600D01*
X32358000Y-44685200D02*
X29618000Y-44685200D01*
X29618000Y-44685200D02*
X29618000Y-51225200D01*
X29618000Y-51225200D02*
X32358000Y-51225200D01*
X32358000Y-51225200D02*
X32358000Y-44685200D01*
X30988000Y-43915200D02*
X30988000Y-44685200D01*
X30988000Y-51995200D02*
X30988000Y-51225200D01*
X24536400Y-51969800D02*
X24536400Y-51199800D01*
X24536400Y-43889800D02*
X24536400Y-44659800D01*
X25906400Y-51199800D02*
X25906400Y-44659800D01*
X23166400Y-51199800D02*
X25906400Y-51199800D01*
X23166400Y-44659800D02*
X23166400Y-51199800D01*
X25906400Y-44659800D02*
X23166400Y-44659800D01*
X18008600Y-52020600D02*
X18008600Y-51250600D01*
X18008600Y-43940600D02*
X18008600Y-44710600D01*
X19378600Y-51250600D02*
X19378600Y-44710600D01*
X16638600Y-51250600D02*
X19378600Y-51250600D01*
X16638600Y-44710600D02*
X16638600Y-51250600D01*
X19378600Y-44710600D02*
X16638600Y-44710600D01*
X70358000Y-61926600D02*
X70358000Y-61156600D01*
X70358000Y-53846600D02*
X70358000Y-54616600D01*
X71728000Y-61156600D02*
X71728000Y-54616600D01*
X68988000Y-61156600D02*
X71728000Y-61156600D01*
X68988000Y-54616600D02*
X68988000Y-61156600D01*
X71728000Y-54616600D02*
X68988000Y-54616600D01*
X46761400Y-61266200D02*
X46761400Y-60496200D01*
X46761400Y-53186200D02*
X46761400Y-53956200D01*
X48131400Y-60496200D02*
X48131400Y-53956200D01*
X45391400Y-60496200D02*
X48131400Y-60496200D01*
X45391400Y-53956200D02*
X45391400Y-60496200D01*
X48131400Y-53956200D02*
X45391400Y-53956200D01*
X39904800Y-39497000D02*
X39134800Y-39497000D01*
X31824800Y-39497000D02*
X32594800Y-39497000D01*
X39134800Y-38127000D02*
X32594800Y-38127000D01*
X39134800Y-40867000D02*
X39134800Y-38127000D01*
X32594800Y-40867000D02*
X39134800Y-40867000D01*
X32594800Y-38127000D02*
X32594800Y-40867000D01*
X94057800Y-9467600D02*
X96797800Y-9467600D01*
X96797800Y-9467600D02*
X96797800Y-2927600D01*
X96797800Y-2927600D02*
X94057800Y-2927600D01*
X94057800Y-2927600D02*
X94057800Y-9467600D01*
X95427800Y-10237600D02*
X95427800Y-9467600D01*
X95427800Y-2157600D02*
X95427800Y-2927600D01*
X39007800Y-35228200D02*
X39007800Y-32488200D01*
X39007800Y-32488200D02*
X32467800Y-32488200D01*
X32467800Y-32488200D02*
X32467800Y-35228200D01*
X32467800Y-35228200D02*
X39007800Y-35228200D01*
X39777800Y-33858200D02*
X39007800Y-33858200D01*
X31697800Y-33858200D02*
X32467800Y-33858200D01*
X40158800Y-29565600D02*
X39388800Y-29565600D01*
X32078800Y-29565600D02*
X32848800Y-29565600D01*
X39388800Y-28195600D02*
X32848800Y-28195600D01*
X39388800Y-30935600D02*
X39388800Y-28195600D01*
X32848800Y-30935600D02*
X39388800Y-30935600D01*
X32848800Y-28195600D02*
X32848800Y-30935600D01*
X79017800Y-2927600D02*
X76277800Y-2927600D01*
X76277800Y-2927600D02*
X76277800Y-9467600D01*
X76277800Y-9467600D02*
X79017800Y-9467600D01*
X79017800Y-9467600D02*
X79017800Y-2927600D01*
X77647800Y-2157600D02*
X77647800Y-2927600D01*
X77647800Y-10237600D02*
X77647800Y-9467600D01*
X40311200Y-25323800D02*
X39541200Y-25323800D01*
X32231200Y-25323800D02*
X33001200Y-25323800D01*
X39541200Y-23953800D02*
X33001200Y-23953800D01*
X39541200Y-26693800D02*
X39541200Y-23953800D01*
X33001200Y-26693800D02*
X39541200Y-26693800D01*
X33001200Y-23953800D02*
X33001200Y-26693800D01*
X64585600Y-35863200D02*
X64585600Y-33123200D01*
X64585600Y-33123200D02*
X58045600Y-33123200D01*
X58045600Y-33123200D02*
X58045600Y-35863200D01*
X58045600Y-35863200D02*
X64585600Y-35863200D01*
X65355600Y-34493200D02*
X64585600Y-34493200D01*
X57275600Y-34493200D02*
X58045600Y-34493200D01*
X58243800Y-10432800D02*
X60983800Y-10432800D01*
X60983800Y-10432800D02*
X60983800Y-3892800D01*
X60983800Y-3892800D02*
X58243800Y-3892800D01*
X58243800Y-3892800D02*
X58243800Y-10432800D01*
X59613800Y-11202800D02*
X59613800Y-10432800D01*
X59613800Y-3122800D02*
X59613800Y-3892800D01*
X70816800Y-27831800D02*
X73556800Y-27831800D01*
X73556800Y-27831800D02*
X73556800Y-21291800D01*
X73556800Y-21291800D02*
X70816800Y-21291800D01*
X70816800Y-21291800D02*
X70816800Y-27831800D01*
X72186800Y-28601800D02*
X72186800Y-27831800D01*
X72186800Y-20521800D02*
X72186800Y-21291800D01*
X79851000Y-44372200D02*
X79851000Y-41632200D01*
X79851000Y-41632200D02*
X73311000Y-41632200D01*
X73311000Y-41632200D02*
X73311000Y-44372200D01*
X73311000Y-44372200D02*
X79851000Y-44372200D01*
X80621000Y-43002200D02*
X79851000Y-43002200D01*
X72541000Y-43002200D02*
X73311000Y-43002200D01*
X71042400Y-38912800D02*
X71812400Y-38912800D01*
X79122400Y-38912800D02*
X78352400Y-38912800D01*
X71812400Y-40282800D02*
X78352400Y-40282800D01*
X71812400Y-37542800D02*
X71812400Y-40282800D01*
X78352400Y-37542800D02*
X71812400Y-37542800D01*
X78352400Y-40282800D02*
X78352400Y-37542800D01*
X34213800Y-43889800D02*
X34213800Y-44659800D01*
X34213800Y-51969800D02*
X34213800Y-51199800D01*
X32843800Y-44659800D02*
X32843800Y-51199800D01*
X35583800Y-44659800D02*
X32843800Y-44659800D01*
X35583800Y-51199800D02*
X35583800Y-44659800D01*
X32843800Y-51199800D02*
X35583800Y-51199800D01*
X56337200Y-3046600D02*
X56337200Y-3816600D01*
X56337200Y-11126600D02*
X56337200Y-10356600D01*
X54967200Y-3816600D02*
X54967200Y-10356600D01*
X57707200Y-3816600D02*
X54967200Y-3816600D01*
X57707200Y-10356600D02*
X57707200Y-3816600D01*
X54967200Y-10356600D02*
X57707200Y-10356600D01*
X51453800Y-24204600D02*
X51453800Y-21464600D01*
X51453800Y-21464600D02*
X44913800Y-21464600D01*
X44913800Y-21464600D02*
X44913800Y-24204600D01*
X44913800Y-24204600D02*
X51453800Y-24204600D01*
X52223800Y-22834600D02*
X51453800Y-22834600D01*
X44143800Y-22834600D02*
X44913800Y-22834600D01*
X51436400Y-14935200D02*
X50666400Y-14935200D01*
X43356400Y-14935200D02*
X44126400Y-14935200D01*
X50666400Y-13565200D02*
X44126400Y-13565200D01*
X50666400Y-16305200D02*
X50666400Y-13565200D01*
X44126400Y-16305200D02*
X50666400Y-16305200D01*
X44126400Y-13565200D02*
X44126400Y-16305200D01*
X68527600Y-15348200D02*
X65787600Y-15348200D01*
X65787600Y-15348200D02*
X65787600Y-21888200D01*
X65787600Y-21888200D02*
X68527600Y-21888200D01*
X68527600Y-21888200D02*
X68527600Y-15348200D01*
X67157600Y-14578200D02*
X67157600Y-15348200D01*
X67157600Y-22658200D02*
X67157600Y-21888200D01*
X77012800Y-23013800D02*
X77012800Y-22243800D01*
X77012800Y-14933800D02*
X77012800Y-15703800D01*
X78382800Y-22243800D02*
X78382800Y-15703800D01*
X75642800Y-22243800D02*
X78382800Y-22243800D01*
X75642800Y-15703800D02*
X75642800Y-22243800D01*
X78382800Y-15703800D02*
X75642800Y-15703800D01*
X31057600Y9526600D02*
X31057600Y12266600D01*
X31057600Y12266600D02*
X24517600Y12266600D01*
X24517600Y12266600D02*
X24517600Y9526600D01*
X24517600Y9526600D02*
X31057600Y9526600D01*
X31827600Y10896600D02*
X31057600Y10896600D01*
X23747600Y10896600D02*
X24517600Y10896600D01*
X51917600Y-10923400D02*
X51917600Y-10153400D01*
X51917600Y-2843400D02*
X51917600Y-3613400D01*
X53287600Y-10153400D02*
X53287600Y-3613400D01*
X50547600Y-10153400D02*
X53287600Y-10153400D01*
X50547600Y-3613400D02*
X50547600Y-10153400D01*
X53287600Y-3613400D02*
X50547600Y-3613400D01*
X23747600Y14401800D02*
X24517600Y14401800D01*
X31827600Y14401800D02*
X31057600Y14401800D01*
X24517600Y13031800D02*
X31057600Y13031800D01*
X24517600Y15771800D02*
X24517600Y13031800D01*
X31057600Y15771800D02*
X24517600Y15771800D01*
X31057600Y13031800D02*
X31057600Y15771800D01*
X34720200Y-2927600D02*
X31980200Y-2927600D01*
X31980200Y-2927600D02*
X31980200Y-9467600D01*
X31980200Y-9467600D02*
X34720200Y-9467600D01*
X34720200Y-9467600D02*
X34720200Y-2927600D01*
X33350200Y-2157600D02*
X33350200Y-2927600D01*
X33350200Y-10237600D02*
X33350200Y-9467600D01*
X31006800Y6148400D02*
X31006800Y8888400D01*
X31006800Y8888400D02*
X24466800Y8888400D01*
X24466800Y8888400D02*
X24466800Y6148400D01*
X24466800Y6148400D02*
X31006800Y6148400D01*
X31776800Y7518400D02*
X31006800Y7518400D01*
X23696800Y7518400D02*
X24466800Y7518400D01*
X38200200Y3581400D02*
X38970200Y3581400D01*
X46280200Y3581400D02*
X45510200Y3581400D01*
X38970200Y2211400D02*
X45510200Y2211400D01*
X38970200Y4951400D02*
X38970200Y2211400D01*
X45510200Y4951400D02*
X38970200Y4951400D01*
X45510200Y2211400D02*
X45510200Y4951400D01*
X46331000Y7264400D02*
X45561000Y7264400D01*
X38251000Y7264400D02*
X39021000Y7264400D01*
X45561000Y8634400D02*
X39021000Y8634400D01*
X45561000Y5894400D02*
X45561000Y8634400D01*
X39021000Y5894400D02*
X45561000Y5894400D01*
X39021000Y8634400D02*
X39021000Y5894400D01*
X58718200Y5945200D02*
X58718200Y8685200D01*
X58718200Y8685200D02*
X52178200Y8685200D01*
X52178200Y8685200D02*
X52178200Y5945200D01*
X52178200Y5945200D02*
X58718200Y5945200D01*
X59488200Y7315200D02*
X58718200Y7315200D01*
X51408200Y7315200D02*
X52178200Y7315200D01*
X52152800Y13435000D02*
X52152800Y10695000D01*
X52152800Y10695000D02*
X58692800Y10695000D01*
X58692800Y10695000D02*
X58692800Y13435000D01*
X58692800Y13435000D02*
X52152800Y13435000D01*
X51382800Y12065000D02*
X52152800Y12065000D01*
X59462800Y12065000D02*
X58692800Y12065000D01*
X38730200Y-60700000D02*
X31780200Y-60700000D01*
X38730200Y-55960000D02*
X31780200Y-55960000D01*
X38730200Y-60700000D02*
X38730200Y-58914000D01*
X38730200Y-57924000D02*
X38730200Y-55960000D01*
X31780200Y-60700000D02*
X31780200Y-58914000D01*
X31780200Y-57924000D02*
X31780200Y-55960000D01*
X29560800Y-60623800D02*
X22610800Y-60623800D01*
X29560800Y-55883800D02*
X22610800Y-55883800D01*
X29560800Y-60623800D02*
X29560800Y-58837800D01*
X29560800Y-57847800D02*
X29560800Y-55883800D01*
X22610800Y-60623800D02*
X22610800Y-58837800D01*
X22610800Y-57847800D02*
X22610800Y-55883800D01*
X13339800Y-57873200D02*
X13339800Y-55909200D01*
X13339800Y-60649200D02*
X13339800Y-58863200D01*
X20289800Y-57873200D02*
X20289800Y-55909200D01*
X20289800Y-60649200D02*
X20289800Y-58863200D01*
X20289800Y-55909200D02*
X13339800Y-55909200D01*
X20289800Y-60649200D02*
X13339800Y-60649200D01*
X13706800Y2556200D02*
X18906800Y2556200D01*
X13706800Y12776200D02*
X13706800Y2556200D01*
X18906800Y15376200D02*
X18906800Y2556200D01*
X13706800Y12776200D02*
X16306800Y12776200D01*
X16306800Y12776200D02*
X16306800Y15376200D01*
X16306800Y15376200D02*
X18906800Y15376200D01*
X13706800Y14046200D02*
X13706800Y15376200D01*
X13706800Y15376200D02*
X15036800Y15376200D01*
X62468000Y-38192400D02*
G75*
G02X60468000Y-38192400I-1000000J0D01*
G01*
X60468000Y-38192400D02*
X59218000Y-38192400D01*
X59218000Y-38192400D02*
X59218000Y-56092400D01*
X59218000Y-56092400D02*
X63718000Y-56092400D01*
X63718000Y-56092400D02*
X63718000Y-38192400D01*
X63718000Y-38192400D02*
X62468000Y-38192400D01*
X56218000Y-38132400D02*
X56218000Y-56152400D01*
X56218000Y-56152400D02*
X66718000Y-56152400D01*
X66718000Y-56152400D02*
X66718000Y-38132400D01*
X66718000Y-38132400D02*
X56218000Y-38132400D01*
X74507400Y-8904800D02*
X74507400Y-7654800D01*
X64227400Y-8904800D02*
X74507400Y-8904800D01*
X64227400Y-4404800D02*
X64227400Y-8904800D01*
X74507400Y-4404800D02*
X64227400Y-4404800D01*
X74507400Y-5654800D02*
X74507400Y-4404800D01*
X74507400Y-7654800D02*
G75*
G02X74507400Y-5654800I0J1000000D01*
G01*
X30946400Y-7146800D02*
G75*
G02X30946400Y-5146800I0J1000000D01*
G01*
X30946400Y-5146800D02*
X30946400Y-3896800D01*
X30946400Y-3896800D02*
X20666400Y-3896800D01*
X20666400Y-3896800D02*
X20666400Y-8396800D01*
X20666400Y-8396800D02*
X30946400Y-8396800D01*
X30946400Y-8396800D02*
X30946400Y-7146800D01*
X45729200Y-8523800D02*
X45729200Y-7273800D01*
X35449200Y-8523800D02*
X45729200Y-8523800D01*
X35449200Y-4023800D02*
X35449200Y-8523800D01*
X45729200Y-4023800D02*
X35449200Y-4023800D01*
X45729200Y-5273800D02*
X45729200Y-4023800D01*
X45729200Y-7273800D02*
G75*
G02X45729200Y-5273800I0J1000000D01*
G01*
X12581400Y-13157200D02*
X11891400Y-13157200D01*
X7161400Y-13157200D02*
X7851400Y-13157200D01*
X11891400Y-11737200D02*
X7851400Y-11737200D01*
X11891400Y-14577200D02*
X11891400Y-11737200D01*
X7851400Y-14577200D02*
X11891400Y-14577200D01*
X7851400Y-11737200D02*
X7851400Y-14577200D01*
X86179400Y-21562200D02*
X86179400Y-18722200D01*
X86179400Y-18722200D02*
X82139400Y-18722200D01*
X82139400Y-18722200D02*
X82139400Y-21562200D01*
X82139400Y-21562200D02*
X86179400Y-21562200D01*
X86869400Y-20142200D02*
X86179400Y-20142200D01*
X81449400Y-20142200D02*
X82139400Y-20142200D01*
X48389400Y-58010800D02*
X51229400Y-58010800D01*
X51229400Y-58010800D02*
X51229400Y-53970800D01*
X51229400Y-53970800D02*
X48389400Y-53970800D01*
X48389400Y-53970800D02*
X48389400Y-58010800D01*
X49809400Y-58700800D02*
X49809400Y-58010800D01*
X49809400Y-53280800D02*
X49809400Y-53970800D01*
X52027600Y-17932400D02*
X51337600Y-17932400D01*
X46607600Y-17932400D02*
X47297600Y-17932400D01*
X51337600Y-16512400D02*
X47297600Y-16512400D01*
X51337600Y-19352400D02*
X51337600Y-16512400D01*
X47297600Y-19352400D02*
X51337600Y-19352400D01*
X47297600Y-16512400D02*
X47297600Y-19352400D01*
X54861600Y-47831000D02*
X52021600Y-47831000D01*
X52021600Y-47831000D02*
X52021600Y-51871000D01*
X52021600Y-51871000D02*
X54861600Y-51871000D01*
X54861600Y-51871000D02*
X54861600Y-47831000D01*
X53441600Y-47141000D02*
X53441600Y-47831000D01*
X53441600Y-52561000D02*
X53441600Y-51871000D01*
X58645800Y2186800D02*
X58645800Y5026800D01*
X58645800Y5026800D02*
X54605800Y5026800D01*
X54605800Y5026800D02*
X54605800Y2186800D01*
X54605800Y2186800D02*
X58645800Y2186800D01*
X59335800Y3606800D02*
X58645800Y3606800D01*
X53915800Y3606800D02*
X54605800Y3606800D01*
X93798800Y-24921600D02*
X90198800Y-24921600D01*
X94322984Y-25648805D02*
G75*
G03X93798800Y-24921600I-2324184J-1122795D01*
G01*
X94365999Y-27875442D02*
G75*
G02X93138800Y-29121600I-2367199J1103842D01*
G01*
X89643343Y-27869971D02*
G75*
G03X90888800Y-29121600I2355457J1098371D01*
G01*
X89674616Y-25648805D02*
G75*
G02X90198800Y-24921600I2324184J-1122795D01*
G01*
X92163816Y-16504805D02*
G75*
G02X92688000Y-15777600I2324184J-1122795D01*
G01*
X92132543Y-18725971D02*
G75*
G03X93378000Y-19977600I2355457J1098371D01*
G01*
X96855199Y-18731442D02*
G75*
G02X95628000Y-19977600I-2367199J1103842D01*
G01*
X96812184Y-16504805D02*
G75*
G03X96288000Y-15777600I-2324184J-1122795D01*
G01*
X96288000Y-15777600D02*
X92688000Y-15777600D01*
X91296800Y-8777800D02*
X91296800Y-7527800D01*
X81016800Y-8777800D02*
X91296800Y-8777800D01*
X81016800Y-4277800D02*
X81016800Y-8777800D01*
X91296800Y-4277800D02*
X81016800Y-4277800D01*
X91296800Y-5527800D02*
X91296800Y-4277800D01*
X91296800Y-7527800D02*
G75*
G02X91296800Y-5527800I0J1000000D01*
G01*
D11*
X84853980Y-53365304D02*
X85663504Y-53365304D01*
X85758742Y-53317685D01*
X85806361Y-53270066D01*
X85853980Y-53174828D01*
X85853980Y-52984352D01*
X85806361Y-52889114D01*
X85758742Y-52841495D01*
X85663504Y-52793876D01*
X84853980Y-52793876D01*
X85853980Y-51793876D02*
X85853980Y-52365304D01*
X85853980Y-52079590D02*
X84853980Y-52079590D01*
X84996838Y-52174828D01*
X85092076Y-52270066D01*
X85139695Y-52365304D01*
X4000000Y-3985714D02*
X4380952Y-3985714D01*
X4142857Y-3652380D02*
X4142857Y-4509523D01*
X4190476Y-4604761D01*
X4285714Y-4652380D01*
X4380952Y-4652380D01*
X5142857Y-3985714D02*
X5142857Y-4652380D01*
X4714285Y-3985714D02*
X4714285Y-4509523D01*
X4761904Y-4604761D01*
X4857142Y-4652380D01*
X5000000Y-4652380D01*
X5095238Y-4604761D01*
X5142857Y-4557142D01*
X5619047Y-3985714D02*
X5619047Y-4652380D01*
X5619047Y-4080952D02*
X5666666Y-4033333D01*
X5761904Y-3985714D01*
X5904761Y-3985714D01*
X6000000Y-4033333D01*
X6047619Y-4128571D01*
X6047619Y-4652380D01*
X6904761Y-4604761D02*
X6809523Y-4652380D01*
X6619047Y-4652380D01*
X6523809Y-4604761D01*
X6476190Y-4509523D01*
X6476190Y-4128571D01*
X6523809Y-4033333D01*
X6619047Y-3985714D01*
X6809523Y-3985714D01*
X6904761Y-4033333D01*
X6952380Y-4128571D01*
X6952380Y-4223809D01*
X6476190Y-4319047D01*
X7904761Y-4652380D02*
X7333333Y-4652380D01*
X7619047Y-4652380D02*
X7619047Y-3652380D01*
X7523809Y-3795238D01*
X7428571Y-3890476D01*
X7333333Y-3938095D01*
X4357142Y-33985714D02*
X4357142Y-34795238D01*
X4309523Y-34890476D01*
X4261904Y-34938095D01*
X4166666Y-34985714D01*
X4023809Y-34985714D01*
X3928571Y-34938095D01*
X4357142Y-34604761D02*
X4261904Y-34652380D01*
X4071428Y-34652380D01*
X3976190Y-34604761D01*
X3928571Y-34557142D01*
X3880952Y-34461904D01*
X3880952Y-34176190D01*
X3928571Y-34080952D01*
X3976190Y-34033333D01*
X4071428Y-33985714D01*
X4261904Y-33985714D01*
X4357142Y-34033333D01*
X4976190Y-34652380D02*
X4880952Y-34604761D01*
X4833333Y-34509523D01*
X4833333Y-33652380D01*
X5357142Y-34652380D02*
X5357142Y-33985714D01*
X5357142Y-33652380D02*
X5309523Y-33700000D01*
X5357142Y-33747619D01*
X5404761Y-33700000D01*
X5357142Y-33652380D01*
X5357142Y-33747619D01*
X6261904Y-34652380D02*
X6261904Y-33652380D01*
X6261904Y-34604761D02*
X6166666Y-34652380D01*
X5976190Y-34652380D01*
X5880952Y-34604761D01*
X5833333Y-34557142D01*
X5785714Y-34461904D01*
X5785714Y-34176190D01*
X5833333Y-34080952D01*
X5880952Y-34033333D01*
X5976190Y-33985714D01*
X6166666Y-33985714D01*
X6261904Y-34033333D01*
X7119047Y-34604761D02*
X7023809Y-34652380D01*
X6833333Y-34652380D01*
X6738095Y-34604761D01*
X6690476Y-34509523D01*
X6690476Y-34128571D01*
X6738095Y-34033333D01*
X6833333Y-33985714D01*
X7023809Y-33985714D01*
X7119047Y-34033333D01*
X7166666Y-34128571D01*
X7166666Y-34223809D01*
X6690476Y-34319047D01*
X8119047Y-34652380D02*
X7547619Y-34652380D01*
X7833333Y-34652380D02*
X7833333Y-33652380D01*
X7738095Y-33795238D01*
X7642857Y-33890476D01*
X7547619Y-33938095D01*
X46802019Y-27898238D02*
X46754400Y-27993476D01*
X46659161Y-28088714D01*
X46516304Y-28231571D01*
X46468685Y-28326809D01*
X46468685Y-28422047D01*
X46706780Y-28374428D02*
X46659161Y-28469666D01*
X46563923Y-28564904D01*
X46373447Y-28612523D01*
X46040114Y-28612523D01*
X45849638Y-28564904D01*
X45754400Y-28469666D01*
X45706780Y-28374428D01*
X45706780Y-28183952D01*
X45754400Y-28088714D01*
X45849638Y-27993476D01*
X46040114Y-27945857D01*
X46373447Y-27945857D01*
X46563923Y-27993476D01*
X46659161Y-28088714D01*
X46706780Y-28183952D01*
X46706780Y-28374428D01*
X45706780Y-27612523D02*
X45706780Y-26993476D01*
X46087733Y-27326809D01*
X46087733Y-27183952D01*
X46135352Y-27088714D01*
X46182971Y-27041095D01*
X46278209Y-26993476D01*
X46516304Y-26993476D01*
X46611542Y-27041095D01*
X46659161Y-27088714D01*
X46706780Y-27183952D01*
X46706780Y-27469666D01*
X46659161Y-27564904D01*
X46611542Y-27612523D01*
X59608733Y-21954142D02*
X59561114Y-22001761D01*
X59418257Y-22049380D01*
X59323019Y-22049380D01*
X59180161Y-22001761D01*
X59084923Y-21906523D01*
X59037304Y-21811285D01*
X58989685Y-21620809D01*
X58989685Y-21477952D01*
X59037304Y-21287476D01*
X59084923Y-21192238D01*
X59180161Y-21097000D01*
X59323019Y-21049380D01*
X59418257Y-21049380D01*
X59561114Y-21097000D01*
X59608733Y-21144619D01*
X60465876Y-21382714D02*
X60465876Y-22049380D01*
X60227780Y-21001761D02*
X59989685Y-21716047D01*
X60608733Y-21716047D01*
X77812980Y-29725857D02*
X77336790Y-30059190D01*
X77812980Y-30297285D02*
X76812980Y-30297285D01*
X76812980Y-29916333D01*
X76860600Y-29821095D01*
X76908219Y-29773476D01*
X77003457Y-29725857D01*
X77146314Y-29725857D01*
X77241552Y-29773476D01*
X77289171Y-29821095D01*
X77336790Y-29916333D01*
X77336790Y-30297285D01*
X76812980Y-29392523D02*
X76812980Y-28773476D01*
X77193933Y-29106809D01*
X77193933Y-28963952D01*
X77241552Y-28868714D01*
X77289171Y-28821095D01*
X77384409Y-28773476D01*
X77622504Y-28773476D01*
X77717742Y-28821095D01*
X77765361Y-28868714D01*
X77812980Y-28963952D01*
X77812980Y-29249666D01*
X77765361Y-29344904D01*
X77717742Y-29392523D01*
X77241552Y-28202047D02*
X77193933Y-28297285D01*
X77146314Y-28344904D01*
X77051076Y-28392523D01*
X77003457Y-28392523D01*
X76908219Y-28344904D01*
X76860600Y-28297285D01*
X76812980Y-28202047D01*
X76812980Y-28011571D01*
X76860600Y-27916333D01*
X76908219Y-27868714D01*
X77003457Y-27821095D01*
X77051076Y-27821095D01*
X77146314Y-27868714D01*
X77193933Y-27916333D01*
X77241552Y-28011571D01*
X77241552Y-28202047D01*
X77289171Y-28297285D01*
X77336790Y-28344904D01*
X77432028Y-28392523D01*
X77622504Y-28392523D01*
X77717742Y-28344904D01*
X77765361Y-28297285D01*
X77812980Y-28202047D01*
X77812980Y-28011571D01*
X77765361Y-27916333D01*
X77717742Y-27868714D01*
X77622504Y-27821095D01*
X77432028Y-27821095D01*
X77336790Y-27868714D01*
X77289171Y-27916333D01*
X77241552Y-28011571D01*
X9283866Y-42423161D02*
X9426723Y-42470780D01*
X9664819Y-42470780D01*
X9760057Y-42423161D01*
X9807676Y-42375542D01*
X9855295Y-42280304D01*
X9855295Y-42185066D01*
X9807676Y-42089828D01*
X9760057Y-42042209D01*
X9664819Y-41994590D01*
X9474342Y-41946971D01*
X9379104Y-41899352D01*
X9331485Y-41851733D01*
X9283866Y-41756495D01*
X9283866Y-41661257D01*
X9331485Y-41566019D01*
X9379104Y-41518400D01*
X9474342Y-41470780D01*
X9712438Y-41470780D01*
X9855295Y-41518400D01*
X10188628Y-41470780D02*
X10426723Y-42470780D01*
X10617200Y-41756495D01*
X10807676Y-42470780D01*
X11045771Y-41470780D01*
X11379104Y-41566019D02*
X11426723Y-41518400D01*
X11521961Y-41470780D01*
X11760057Y-41470780D01*
X11855295Y-41518400D01*
X11902914Y-41566019D01*
X11950533Y-41661257D01*
X11950533Y-41756495D01*
X11902914Y-41899352D01*
X11331485Y-42470780D01*
X11950533Y-42470780D01*
X11872933Y-36283980D02*
X11539600Y-35807790D01*
X11301504Y-36283980D02*
X11301504Y-35283980D01*
X11682457Y-35283980D01*
X11777695Y-35331600D01*
X11825314Y-35379219D01*
X11872933Y-35474457D01*
X11872933Y-35617314D01*
X11825314Y-35712552D01*
X11777695Y-35760171D01*
X11682457Y-35807790D01*
X11301504Y-35807790D01*
X12253885Y-35379219D02*
X12301504Y-35331600D01*
X12396742Y-35283980D01*
X12634838Y-35283980D01*
X12730076Y-35331600D01*
X12777695Y-35379219D01*
X12825314Y-35474457D01*
X12825314Y-35569695D01*
X12777695Y-35712552D01*
X12206266Y-36283980D01*
X12825314Y-36283980D01*
X22811933Y-22595342D02*
X22764314Y-22642961D01*
X22621457Y-22690580D01*
X22526219Y-22690580D01*
X22383361Y-22642961D01*
X22288123Y-22547723D01*
X22240504Y-22452485D01*
X22192885Y-22262009D01*
X22192885Y-22119152D01*
X22240504Y-21928676D01*
X22288123Y-21833438D01*
X22383361Y-21738200D01*
X22526219Y-21690580D01*
X22621457Y-21690580D01*
X22764314Y-21738200D01*
X22811933Y-21785819D01*
X23716695Y-21690580D02*
X23240504Y-21690580D01*
X23192885Y-22166771D01*
X23240504Y-22119152D01*
X23335742Y-22071533D01*
X23573838Y-22071533D01*
X23669076Y-22119152D01*
X23716695Y-22166771D01*
X23764314Y-22262009D01*
X23764314Y-22500104D01*
X23716695Y-22595342D01*
X23669076Y-22642961D01*
X23573838Y-22690580D01*
X23335742Y-22690580D01*
X23240504Y-22642961D01*
X23192885Y-22595342D01*
X21259895Y-19855380D02*
X21259895Y-20664904D01*
X21307514Y-20760142D01*
X21355133Y-20807761D01*
X21450371Y-20855380D01*
X21640847Y-20855380D01*
X21736085Y-20807761D01*
X21783704Y-20760142D01*
X21831323Y-20664904D01*
X21831323Y-19855380D01*
X22259895Y-19950619D02*
X22307514Y-19903000D01*
X22402752Y-19855380D01*
X22640847Y-19855380D01*
X22736085Y-19903000D01*
X22783704Y-19950619D01*
X22831323Y-20045857D01*
X22831323Y-20141095D01*
X22783704Y-20283952D01*
X22212276Y-20855380D01*
X22831323Y-20855380D01*
X2140438Y-12303580D02*
X2140438Y-11303580D01*
X2140438Y-11684533D02*
X2235676Y-11636914D01*
X2426152Y-11636914D01*
X2521390Y-11684533D01*
X2569009Y-11732152D01*
X2616628Y-11827390D01*
X2616628Y-12113104D01*
X2569009Y-12208342D01*
X2521390Y-12255961D01*
X2426152Y-12303580D01*
X2235676Y-12303580D01*
X2140438Y-12255961D01*
X3473771Y-11636914D02*
X3473771Y-12303580D01*
X3045200Y-11636914D02*
X3045200Y-12160723D01*
X3092819Y-12255961D01*
X3188057Y-12303580D01*
X3330914Y-12303580D01*
X3426152Y-12255961D01*
X3473771Y-12208342D01*
X3902342Y-12255961D02*
X3997580Y-12303580D01*
X4188057Y-12303580D01*
X4283295Y-12255961D01*
X4330914Y-12160723D01*
X4330914Y-12113104D01*
X4283295Y-12017866D01*
X4188057Y-11970247D01*
X4045200Y-11970247D01*
X3949961Y-11922628D01*
X3902342Y-11827390D01*
X3902342Y-11779771D01*
X3949961Y-11684533D01*
X4045200Y-11636914D01*
X4188057Y-11636914D01*
X4283295Y-11684533D01*
X4711866Y-12255961D02*
X4807104Y-12303580D01*
X4997580Y-12303580D01*
X5092819Y-12255961D01*
X5140438Y-12160723D01*
X5140438Y-12113104D01*
X5092819Y-12017866D01*
X4997580Y-11970247D01*
X4854723Y-11970247D01*
X4759485Y-11922628D01*
X4711866Y-11827390D01*
X4711866Y-11779771D01*
X4759485Y-11684533D01*
X4854723Y-11636914D01*
X4997580Y-11636914D01*
X5092819Y-11684533D01*
X5902342Y-11779771D02*
X6045200Y-11827390D01*
X6092819Y-11875009D01*
X6140438Y-11970247D01*
X6140438Y-12113104D01*
X6092819Y-12208342D01*
X6045200Y-12255961D01*
X5949961Y-12303580D01*
X5569009Y-12303580D01*
X5569009Y-11303580D01*
X5902342Y-11303580D01*
X5997580Y-11351200D01*
X6045200Y-11398819D01*
X6092819Y-11494057D01*
X6092819Y-11589295D01*
X6045200Y-11684533D01*
X5997580Y-11732152D01*
X5902342Y-11779771D01*
X5569009Y-11779771D01*
X6997580Y-12303580D02*
X6997580Y-11779771D01*
X6949961Y-11684533D01*
X6854723Y-11636914D01*
X6664247Y-11636914D01*
X6569009Y-11684533D01*
X6997580Y-12255961D02*
X6902342Y-12303580D01*
X6664247Y-12303580D01*
X6569009Y-12255961D01*
X6521390Y-12160723D01*
X6521390Y-12065485D01*
X6569009Y-11970247D01*
X6664247Y-11922628D01*
X6902342Y-11922628D01*
X6997580Y-11875009D01*
X7473771Y-12303580D02*
X7473771Y-11636914D01*
X7473771Y-11827390D02*
X7521390Y-11732152D01*
X7569009Y-11684533D01*
X7664247Y-11636914D01*
X7759485Y-11636914D01*
X8092819Y-12303580D02*
X8092819Y-11303580D01*
X8569009Y-11636914D02*
X8569009Y-12303580D01*
X8569009Y-11732152D02*
X8616628Y-11684533D01*
X8711866Y-11636914D01*
X8854723Y-11636914D01*
X8949961Y-11684533D01*
X8997580Y-11779771D01*
X8997580Y-12303580D01*
X9997580Y-12303580D02*
X9426152Y-12303580D01*
X9711866Y-12303580D02*
X9711866Y-11303580D01*
X9616628Y-11446438D01*
X9521390Y-11541676D01*
X9426152Y-11589295D01*
X35634704Y-12607180D02*
X35634704Y-11607180D01*
X35872800Y-11607180D01*
X36015657Y-11654800D01*
X36110895Y-11750038D01*
X36158514Y-11845276D01*
X36206133Y-12035752D01*
X36206133Y-12178609D01*
X36158514Y-12369085D01*
X36110895Y-12464323D01*
X36015657Y-12559561D01*
X35872800Y-12607180D01*
X35634704Y-12607180D01*
X37158514Y-12607180D02*
X36587085Y-12607180D01*
X36872800Y-12607180D02*
X36872800Y-11607180D01*
X36777561Y-11750038D01*
X36682323Y-11845276D01*
X36587085Y-11892895D01*
X32300895Y-12927180D02*
X32300895Y-11927180D01*
X32872323Y-12927180D02*
X32443752Y-12355752D01*
X32872323Y-11927180D02*
X32300895Y-12498609D01*
X48915714Y-51362904D02*
X48915714Y-50981952D01*
X49582380Y-51220047D02*
X48725238Y-51220047D01*
X48630000Y-51172428D01*
X48582380Y-51077190D01*
X48582380Y-50981952D01*
X49582380Y-50648619D02*
X48915714Y-50648619D01*
X49106190Y-50648619D02*
X49010952Y-50601000D01*
X48963333Y-50553380D01*
X48915714Y-50458142D01*
X48915714Y-50362904D01*
X49534761Y-49648619D02*
X49582380Y-49743857D01*
X49582380Y-49934333D01*
X49534761Y-50029571D01*
X49439523Y-50077190D01*
X49058571Y-50077190D01*
X48963333Y-50029571D01*
X48915714Y-49934333D01*
X48915714Y-49743857D01*
X48963333Y-49648619D01*
X49058571Y-49601000D01*
X49153809Y-49601000D01*
X49249047Y-50077190D01*
X48915714Y-48743857D02*
X49915714Y-48743857D01*
X49534761Y-48743857D02*
X49582380Y-48839095D01*
X49582380Y-49029571D01*
X49534761Y-49124809D01*
X49487142Y-49172428D01*
X49391904Y-49220047D01*
X49106190Y-49220047D01*
X49010952Y-49172428D01*
X48963333Y-49124809D01*
X48915714Y-49029571D01*
X48915714Y-48839095D01*
X48963333Y-48743857D01*
X49534761Y-47839095D02*
X49582380Y-47934333D01*
X49582380Y-48124809D01*
X49534761Y-48220047D01*
X49487142Y-48267666D01*
X49391904Y-48315285D01*
X49106190Y-48315285D01*
X49010952Y-48267666D01*
X48963333Y-48220047D01*
X48915714Y-48124809D01*
X48915714Y-47934333D01*
X48963333Y-47839095D01*
X49582380Y-46981952D02*
X49058571Y-46981952D01*
X48963333Y-47029571D01*
X48915714Y-47124809D01*
X48915714Y-47315285D01*
X48963333Y-47410523D01*
X49534761Y-46981952D02*
X49582380Y-47077190D01*
X49582380Y-47315285D01*
X49534761Y-47410523D01*
X49439523Y-47458142D01*
X49344285Y-47458142D01*
X49249047Y-47410523D01*
X49201428Y-47315285D01*
X49201428Y-47077190D01*
X49153809Y-46981952D01*
X49582380Y-46362904D02*
X49534761Y-46458142D01*
X49439523Y-46505761D01*
X48582380Y-46505761D01*
X48582380Y-46124809D02*
X48582380Y-45553380D01*
X49582380Y-45839095D02*
X48582380Y-45839095D01*
X49582380Y-44648619D02*
X49106190Y-44981952D01*
X49582380Y-45220047D02*
X48582380Y-45220047D01*
X48582380Y-44839095D01*
X48630000Y-44743857D01*
X48677619Y-44696238D01*
X48772857Y-44648619D01*
X48915714Y-44648619D01*
X49010952Y-44696238D01*
X49058571Y-44743857D01*
X49106190Y-44839095D01*
X49106190Y-45220047D01*
X49582380Y-44220047D02*
X48582380Y-44220047D01*
X49582380Y-43743857D02*
X48582380Y-43743857D01*
X49296666Y-43410523D01*
X48582380Y-43077190D01*
X49582380Y-43077190D01*
X49582380Y-42601000D02*
X48582380Y-42601000D01*
X49296666Y-42267666D01*
X48582380Y-41934333D01*
X49582380Y-41934333D01*
X49582380Y-40934333D02*
X49582380Y-41505761D01*
X49582380Y-41220047D02*
X48582380Y-41220047D01*
X48725238Y-41315285D01*
X48820476Y-41410523D01*
X48868095Y-41505761D01*
X98759580Y9420266D02*
X99473866Y9420266D01*
X99616723Y9372647D01*
X99711961Y9277409D01*
X99759580Y9134552D01*
X99759580Y9039314D01*
X99759580Y10420266D02*
X99759580Y9848838D01*
X99759580Y10134552D02*
X98759580Y10134552D01*
X98902438Y10039314D01*
X98997676Y9944076D01*
X99045295Y9848838D01*
X42650980Y-64392133D02*
X43365266Y-64392133D01*
X43508123Y-64439752D01*
X43603361Y-64534990D01*
X43650980Y-64677847D01*
X43650980Y-64773085D01*
X42746219Y-63963561D02*
X42698600Y-63915942D01*
X42650980Y-63820704D01*
X42650980Y-63582609D01*
X42698600Y-63487371D01*
X42746219Y-63439752D01*
X42841457Y-63392133D01*
X42936695Y-63392133D01*
X43079552Y-63439752D01*
X43650980Y-64011180D01*
X43650980Y-63392133D01*
X61651285Y10658085D02*
X61651285Y9658085D01*
X61651285Y10610466D02*
X61746523Y10658085D01*
X61937000Y10658085D01*
X62032238Y10610466D01*
X62079857Y10562847D01*
X62127476Y10467609D01*
X62127476Y10181895D01*
X62079857Y10086657D01*
X62032238Y10039038D01*
X61937000Y9991419D01*
X61746523Y9991419D01*
X61651285Y10039038D01*
X62698904Y9991419D02*
X62603666Y10039038D01*
X62556047Y10134276D01*
X62556047Y10991419D01*
X63508428Y10658085D02*
X63508428Y9991419D01*
X63079857Y10658085D02*
X63079857Y10134276D01*
X63127476Y10039038D01*
X63222714Y9991419D01*
X63365571Y9991419D01*
X63460809Y10039038D01*
X63508428Y10086657D01*
X63937000Y10039038D02*
X64032238Y9991419D01*
X64222714Y9991419D01*
X64317952Y10039038D01*
X64365571Y10134276D01*
X64365571Y10181895D01*
X64317952Y10277133D01*
X64222714Y10324752D01*
X64079857Y10324752D01*
X63984619Y10372371D01*
X63937000Y10467609D01*
X63937000Y10515228D01*
X63984619Y10610466D01*
X64079857Y10658085D01*
X64222714Y10658085D01*
X64317952Y10610466D01*
X64937000Y9991419D02*
X64841761Y10039038D01*
X64794142Y10086657D01*
X64746523Y10181895D01*
X64746523Y10467609D01*
X64794142Y10562847D01*
X64841761Y10610466D01*
X64937000Y10658085D01*
X65079857Y10658085D01*
X65175095Y10610466D01*
X65222714Y10562847D01*
X65270333Y10467609D01*
X65270333Y10181895D01*
X65222714Y10086657D01*
X65175095Y10039038D01*
X65079857Y9991419D01*
X64937000Y9991419D01*
X66127476Y10658085D02*
X66127476Y9991419D01*
X65698904Y10658085D02*
X65698904Y10134276D01*
X65746523Y10039038D01*
X65841761Y9991419D01*
X65984619Y9991419D01*
X66079857Y10039038D01*
X66127476Y10086657D01*
X66603666Y9991419D02*
X66603666Y10658085D01*
X66603666Y10562847D02*
X66651285Y10610466D01*
X66746523Y10658085D01*
X66889380Y10658085D01*
X66984619Y10610466D01*
X67032238Y10515228D01*
X67032238Y9991419D01*
X67032238Y10515228D02*
X67079857Y10610466D01*
X67175095Y10658085D01*
X67317952Y10658085D01*
X67413190Y10610466D01*
X67460809Y10515228D01*
X67460809Y9991419D01*
X68079857Y9991419D02*
X67984619Y10039038D01*
X67937000Y10086657D01*
X67889380Y10181895D01*
X67889380Y10467609D01*
X67937000Y10562847D01*
X67984619Y10610466D01*
X68079857Y10658085D01*
X68222714Y10658085D01*
X68317952Y10610466D01*
X68365571Y10562847D01*
X68413190Y10467609D01*
X68413190Y10181895D01*
X68365571Y10086657D01*
X68317952Y10039038D01*
X68222714Y9991419D01*
X68079857Y9991419D01*
X68841761Y9991419D02*
X68841761Y10658085D01*
X68841761Y10991419D02*
X68794142Y10943800D01*
X68841761Y10896180D01*
X68889380Y10943800D01*
X68841761Y10991419D01*
X68841761Y10896180D01*
X69317952Y10658085D02*
X69317952Y9991419D01*
X69317952Y10562847D02*
X69365571Y10610466D01*
X69460809Y10658085D01*
X69603666Y10658085D01*
X69698904Y10610466D01*
X69746523Y10515228D01*
X69746523Y9991419D01*
X70175095Y10039038D02*
X70270333Y9991419D01*
X70460809Y9991419D01*
X70556047Y10039038D01*
X70603666Y10134276D01*
X70603666Y10181895D01*
X70556047Y10277133D01*
X70460809Y10324752D01*
X70317952Y10324752D01*
X70222714Y10372371D01*
X70175095Y10467609D01*
X70175095Y10515228D01*
X70222714Y10610466D01*
X70317952Y10658085D01*
X70460809Y10658085D01*
X70556047Y10610466D01*
X70937000Y10991419D02*
X71603666Y10991419D01*
X71175095Y9991419D01*
X71889380Y10658085D02*
X72127476Y9991419D01*
X72365571Y10658085D01*
X73270333Y9991419D02*
X72698904Y9991419D01*
X72984619Y9991419D02*
X72984619Y10991419D01*
X72889380Y10848561D01*
X72794142Y10753323D01*
X72698904Y10705704D01*
X94575333Y-31381780D02*
X94242000Y-30905590D01*
X94003904Y-31381780D02*
X94003904Y-30381780D01*
X94384857Y-30381780D01*
X94480095Y-30429400D01*
X94527714Y-30477019D01*
X94575333Y-30572257D01*
X94575333Y-30715114D01*
X94527714Y-30810352D01*
X94480095Y-30857971D01*
X94384857Y-30905590D01*
X94003904Y-30905590D01*
X95527714Y-31381780D02*
X94956285Y-31381780D01*
X95242000Y-31381780D02*
X95242000Y-30381780D01*
X95146761Y-30524638D01*
X95051523Y-30619876D01*
X94956285Y-30667495D01*
X43640180Y-48147266D02*
X43163990Y-48480600D01*
X43640180Y-48718695D02*
X42640180Y-48718695D01*
X42640180Y-48337742D01*
X42687800Y-48242504D01*
X42735419Y-48194885D01*
X42830657Y-48147266D01*
X42973514Y-48147266D01*
X43068752Y-48194885D01*
X43116371Y-48242504D01*
X43163990Y-48337742D01*
X43163990Y-48718695D01*
X42640180Y-47813933D02*
X42640180Y-47194885D01*
X43021133Y-47528219D01*
X43021133Y-47385361D01*
X43068752Y-47290123D01*
X43116371Y-47242504D01*
X43211609Y-47194885D01*
X43449704Y-47194885D01*
X43544942Y-47242504D01*
X43592561Y-47290123D01*
X43640180Y-47385361D01*
X43640180Y-47671076D01*
X43592561Y-47766314D01*
X43544942Y-47813933D01*
X88047533Y-41735180D02*
X87714200Y-41258990D01*
X87476104Y-41735180D02*
X87476104Y-40735180D01*
X87857057Y-40735180D01*
X87952295Y-40782800D01*
X87999914Y-40830419D01*
X88047533Y-40925657D01*
X88047533Y-41068514D01*
X87999914Y-41163752D01*
X87952295Y-41211371D01*
X87857057Y-41258990D01*
X87476104Y-41258990D01*
X88904676Y-41068514D02*
X88904676Y-41735180D01*
X88666580Y-40687561D02*
X88428485Y-41401847D01*
X89047533Y-41401847D01*
X87810780Y-28741666D02*
X87334590Y-29075000D01*
X87810780Y-29313095D02*
X86810780Y-29313095D01*
X86810780Y-28932142D01*
X86858400Y-28836904D01*
X86906019Y-28789285D01*
X87001257Y-28741666D01*
X87144114Y-28741666D01*
X87239352Y-28789285D01*
X87286971Y-28836904D01*
X87334590Y-28932142D01*
X87334590Y-29313095D01*
X86810780Y-27836904D02*
X86810780Y-28313095D01*
X87286971Y-28360714D01*
X87239352Y-28313095D01*
X87191733Y-28217857D01*
X87191733Y-27979761D01*
X87239352Y-27884523D01*
X87286971Y-27836904D01*
X87382209Y-27789285D01*
X87620304Y-27789285D01*
X87715542Y-27836904D01*
X87763161Y-27884523D01*
X87810780Y-27979761D01*
X87810780Y-28217857D01*
X87763161Y-28313095D01*
X87715542Y-28360714D01*
X9756580Y-47613866D02*
X9280390Y-47947200D01*
X9756580Y-48185295D02*
X8756580Y-48185295D01*
X8756580Y-47804342D01*
X8804200Y-47709104D01*
X8851819Y-47661485D01*
X8947057Y-47613866D01*
X9089914Y-47613866D01*
X9185152Y-47661485D01*
X9232771Y-47709104D01*
X9280390Y-47804342D01*
X9280390Y-48185295D01*
X8756580Y-46756723D02*
X8756580Y-46947200D01*
X8804200Y-47042438D01*
X8851819Y-47090057D01*
X8994676Y-47185295D01*
X9185152Y-47232914D01*
X9566104Y-47232914D01*
X9661342Y-47185295D01*
X9708961Y-47137676D01*
X9756580Y-47042438D01*
X9756580Y-46851961D01*
X9708961Y-46756723D01*
X9661342Y-46709104D01*
X9566104Y-46661485D01*
X9328009Y-46661485D01*
X9232771Y-46709104D01*
X9185152Y-46756723D01*
X9137533Y-46851961D01*
X9137533Y-47042438D01*
X9185152Y-47137676D01*
X9232771Y-47185295D01*
X9328009Y-47232914D01*
X12279333Y-36909180D02*
X11946000Y-36432990D01*
X11707904Y-36909180D02*
X11707904Y-35909180D01*
X12088857Y-35909180D01*
X12184095Y-35956800D01*
X12231714Y-36004419D01*
X12279333Y-36099657D01*
X12279333Y-36242514D01*
X12231714Y-36337752D01*
X12184095Y-36385371D01*
X12088857Y-36432990D01*
X11707904Y-36432990D01*
X12612666Y-35909180D02*
X13279333Y-35909180D01*
X12850761Y-36909180D01*
X61453733Y-58788380D02*
X61120400Y-58312190D01*
X60882304Y-58788380D02*
X60882304Y-57788380D01*
X61263257Y-57788380D01*
X61358495Y-57836000D01*
X61406114Y-57883619D01*
X61453733Y-57978857D01*
X61453733Y-58121714D01*
X61406114Y-58216952D01*
X61358495Y-58264571D01*
X61263257Y-58312190D01*
X60882304Y-58312190D01*
X62025161Y-58216952D02*
X61929923Y-58169333D01*
X61882304Y-58121714D01*
X61834685Y-58026476D01*
X61834685Y-57978857D01*
X61882304Y-57883619D01*
X61929923Y-57836000D01*
X62025161Y-57788380D01*
X62215638Y-57788380D01*
X62310876Y-57836000D01*
X62358495Y-57883619D01*
X62406114Y-57978857D01*
X62406114Y-58026476D01*
X62358495Y-58121714D01*
X62310876Y-58169333D01*
X62215638Y-58216952D01*
X62025161Y-58216952D01*
X61929923Y-58264571D01*
X61882304Y-58312190D01*
X61834685Y-58407428D01*
X61834685Y-58597904D01*
X61882304Y-58693142D01*
X61929923Y-58740761D01*
X62025161Y-58788380D01*
X62215638Y-58788380D01*
X62310876Y-58740761D01*
X62358495Y-58693142D01*
X62406114Y-58597904D01*
X62406114Y-58407428D01*
X62358495Y-58312190D01*
X62310876Y-58264571D01*
X62215638Y-58216952D01*
X40287380Y-48096466D02*
X39811190Y-48429800D01*
X40287380Y-48667895D02*
X39287380Y-48667895D01*
X39287380Y-48286942D01*
X39335000Y-48191704D01*
X39382619Y-48144085D01*
X39477857Y-48096466D01*
X39620714Y-48096466D01*
X39715952Y-48144085D01*
X39763571Y-48191704D01*
X39811190Y-48286942D01*
X39811190Y-48667895D01*
X40287380Y-47620276D02*
X40287380Y-47429800D01*
X40239761Y-47334561D01*
X40192142Y-47286942D01*
X40049285Y-47191704D01*
X39858809Y-47144085D01*
X39477857Y-47144085D01*
X39382619Y-47191704D01*
X39335000Y-47239323D01*
X39287380Y-47334561D01*
X39287380Y-47525038D01*
X39335000Y-47620276D01*
X39382619Y-47667895D01*
X39477857Y-47715514D01*
X39715952Y-47715514D01*
X39811190Y-47667895D01*
X39858809Y-47620276D01*
X39906428Y-47525038D01*
X39906428Y-47334561D01*
X39858809Y-47239323D01*
X39811190Y-47191704D01*
X39715952Y-47144085D01*
X30609980Y-48598057D02*
X30133790Y-48931390D01*
X30609980Y-49169485D02*
X29609980Y-49169485D01*
X29609980Y-48788533D01*
X29657600Y-48693295D01*
X29705219Y-48645676D01*
X29800457Y-48598057D01*
X29943314Y-48598057D01*
X30038552Y-48645676D01*
X30086171Y-48693295D01*
X30133790Y-48788533D01*
X30133790Y-49169485D01*
X30609980Y-47645676D02*
X30609980Y-48217104D01*
X30609980Y-47931390D02*
X29609980Y-47931390D01*
X29752838Y-48026628D01*
X29848076Y-48121866D01*
X29895695Y-48217104D01*
X29609980Y-47026628D02*
X29609980Y-46931390D01*
X29657600Y-46836152D01*
X29705219Y-46788533D01*
X29800457Y-46740914D01*
X29990933Y-46693295D01*
X30229028Y-46693295D01*
X30419504Y-46740914D01*
X30514742Y-46788533D01*
X30562361Y-46836152D01*
X30609980Y-46931390D01*
X30609980Y-47026628D01*
X30562361Y-47121866D01*
X30514742Y-47169485D01*
X30419504Y-47217104D01*
X30229028Y-47264723D01*
X29990933Y-47264723D01*
X29800457Y-47217104D01*
X29705219Y-47169485D01*
X29657600Y-47121866D01*
X29609980Y-47026628D01*
X24107580Y-48623457D02*
X23631390Y-48956790D01*
X24107580Y-49194885D02*
X23107580Y-49194885D01*
X23107580Y-48813933D01*
X23155200Y-48718695D01*
X23202819Y-48671076D01*
X23298057Y-48623457D01*
X23440914Y-48623457D01*
X23536152Y-48671076D01*
X23583771Y-48718695D01*
X23631390Y-48813933D01*
X23631390Y-49194885D01*
X24107580Y-47671076D02*
X24107580Y-48242504D01*
X24107580Y-47956790D02*
X23107580Y-47956790D01*
X23250438Y-48052028D01*
X23345676Y-48147266D01*
X23393295Y-48242504D01*
X24107580Y-46718695D02*
X24107580Y-47290123D01*
X24107580Y-47004409D02*
X23107580Y-47004409D01*
X23250438Y-47099647D01*
X23345676Y-47194885D01*
X23393295Y-47290123D01*
X17579780Y-48623457D02*
X17103590Y-48956790D01*
X17579780Y-49194885D02*
X16579780Y-49194885D01*
X16579780Y-48813933D01*
X16627400Y-48718695D01*
X16675019Y-48671076D01*
X16770257Y-48623457D01*
X16913114Y-48623457D01*
X17008352Y-48671076D01*
X17055971Y-48718695D01*
X17103590Y-48813933D01*
X17103590Y-49194885D01*
X17579780Y-47671076D02*
X17579780Y-48242504D01*
X17579780Y-47956790D02*
X16579780Y-47956790D01*
X16722638Y-48052028D01*
X16817876Y-48147266D01*
X16865495Y-48242504D01*
X16675019Y-47290123D02*
X16627400Y-47242504D01*
X16579780Y-47147266D01*
X16579780Y-46909171D01*
X16627400Y-46813933D01*
X16675019Y-46766314D01*
X16770257Y-46718695D01*
X16865495Y-46718695D01*
X17008352Y-46766314D01*
X17579780Y-47337742D01*
X17579780Y-46718695D01*
X33810380Y-48598057D02*
X33334190Y-48931390D01*
X33810380Y-49169485D02*
X32810380Y-49169485D01*
X32810380Y-48788533D01*
X32858000Y-48693295D01*
X32905619Y-48645676D01*
X33000857Y-48598057D01*
X33143714Y-48598057D01*
X33238952Y-48645676D01*
X33286571Y-48693295D01*
X33334190Y-48788533D01*
X33334190Y-49169485D01*
X33810380Y-47645676D02*
X33810380Y-48217104D01*
X33810380Y-47931390D02*
X32810380Y-47931390D01*
X32953238Y-48026628D01*
X33048476Y-48121866D01*
X33096095Y-48217104D01*
X32810380Y-47312342D02*
X32810380Y-46693295D01*
X33191333Y-47026628D01*
X33191333Y-46883771D01*
X33238952Y-46788533D01*
X33286571Y-46740914D01*
X33381809Y-46693295D01*
X33619904Y-46693295D01*
X33715142Y-46740914D01*
X33762761Y-46788533D01*
X33810380Y-46883771D01*
X33810380Y-47169485D01*
X33762761Y-47264723D01*
X33715142Y-47312342D01*
X27358780Y-48572657D02*
X26882590Y-48905990D01*
X27358780Y-49144085D02*
X26358780Y-49144085D01*
X26358780Y-48763133D01*
X26406400Y-48667895D01*
X26454019Y-48620276D01*
X26549257Y-48572657D01*
X26692114Y-48572657D01*
X26787352Y-48620276D01*
X26834971Y-48667895D01*
X26882590Y-48763133D01*
X26882590Y-49144085D01*
X27358780Y-47620276D02*
X27358780Y-48191704D01*
X27358780Y-47905990D02*
X26358780Y-47905990D01*
X26501638Y-48001228D01*
X26596876Y-48096466D01*
X26644495Y-48191704D01*
X26692114Y-46763133D02*
X27358780Y-46763133D01*
X26311161Y-47001228D02*
X27025447Y-47239323D01*
X27025447Y-46620276D01*
X20830980Y-48623457D02*
X20354790Y-48956790D01*
X20830980Y-49194885D02*
X19830980Y-49194885D01*
X19830980Y-48813933D01*
X19878600Y-48718695D01*
X19926219Y-48671076D01*
X20021457Y-48623457D01*
X20164314Y-48623457D01*
X20259552Y-48671076D01*
X20307171Y-48718695D01*
X20354790Y-48813933D01*
X20354790Y-49194885D01*
X20830980Y-47671076D02*
X20830980Y-48242504D01*
X20830980Y-47956790D02*
X19830980Y-47956790D01*
X19973838Y-48052028D01*
X20069076Y-48147266D01*
X20116695Y-48242504D01*
X19830980Y-46766314D02*
X19830980Y-47242504D01*
X20307171Y-47290123D01*
X20259552Y-47242504D01*
X20211933Y-47147266D01*
X20211933Y-46909171D01*
X20259552Y-46813933D01*
X20307171Y-46766314D01*
X20402409Y-46718695D01*
X20640504Y-46718695D01*
X20735742Y-46766314D01*
X20783361Y-46813933D01*
X20830980Y-46909171D01*
X20830980Y-47147266D01*
X20783361Y-47242504D01*
X20735742Y-47290123D01*
X73180380Y-58529457D02*
X72704190Y-58862790D01*
X73180380Y-59100885D02*
X72180380Y-59100885D01*
X72180380Y-58719933D01*
X72228000Y-58624695D01*
X72275619Y-58577076D01*
X72370857Y-58529457D01*
X72513714Y-58529457D01*
X72608952Y-58577076D01*
X72656571Y-58624695D01*
X72704190Y-58719933D01*
X72704190Y-59100885D01*
X73180380Y-57577076D02*
X73180380Y-58148504D01*
X73180380Y-57862790D02*
X72180380Y-57862790D01*
X72323238Y-57958028D01*
X72418476Y-58053266D01*
X72466095Y-58148504D01*
X72180380Y-56719933D02*
X72180380Y-56910409D01*
X72228000Y-57005647D01*
X72275619Y-57053266D01*
X72418476Y-57148504D01*
X72608952Y-57196123D01*
X72989904Y-57196123D01*
X73085142Y-57148504D01*
X73132761Y-57100885D01*
X73180380Y-57005647D01*
X73180380Y-56815171D01*
X73132761Y-56719933D01*
X73085142Y-56672314D01*
X72989904Y-56624695D01*
X72751809Y-56624695D01*
X72656571Y-56672314D01*
X72608952Y-56719933D01*
X72561333Y-56815171D01*
X72561333Y-57005647D01*
X72608952Y-57100885D01*
X72656571Y-57148504D01*
X72751809Y-57196123D01*
X49583780Y-57869057D02*
X49107590Y-58202390D01*
X49583780Y-58440485D02*
X48583780Y-58440485D01*
X48583780Y-58059533D01*
X48631400Y-57964295D01*
X48679019Y-57916676D01*
X48774257Y-57869057D01*
X48917114Y-57869057D01*
X49012352Y-57916676D01*
X49059971Y-57964295D01*
X49107590Y-58059533D01*
X49107590Y-58440485D01*
X49583780Y-56916676D02*
X49583780Y-57488104D01*
X49583780Y-57202390D02*
X48583780Y-57202390D01*
X48726638Y-57297628D01*
X48821876Y-57392866D01*
X48869495Y-57488104D01*
X48583780Y-56583342D02*
X48583780Y-55916676D01*
X49583780Y-56345247D01*
X35221942Y-37579380D02*
X34888609Y-37103190D01*
X34650514Y-37579380D02*
X34650514Y-36579380D01*
X35031466Y-36579380D01*
X35126704Y-36627000D01*
X35174323Y-36674619D01*
X35221942Y-36769857D01*
X35221942Y-36912714D01*
X35174323Y-37007952D01*
X35126704Y-37055571D01*
X35031466Y-37103190D01*
X34650514Y-37103190D01*
X36174323Y-37579380D02*
X35602895Y-37579380D01*
X35888609Y-37579380D02*
X35888609Y-36579380D01*
X35793371Y-36722238D01*
X35698133Y-36817476D01*
X35602895Y-36865095D01*
X36745752Y-37007952D02*
X36650514Y-36960333D01*
X36602895Y-36912714D01*
X36555276Y-36817476D01*
X36555276Y-36769857D01*
X36602895Y-36674619D01*
X36650514Y-36627000D01*
X36745752Y-36579380D01*
X36936228Y-36579380D01*
X37031466Y-36627000D01*
X37079085Y-36674619D01*
X37126704Y-36769857D01*
X37126704Y-36817476D01*
X37079085Y-36912714D01*
X37031466Y-36960333D01*
X36936228Y-37007952D01*
X36745752Y-37007952D01*
X36650514Y-37055571D01*
X36602895Y-37103190D01*
X36555276Y-37198428D01*
X36555276Y-37388904D01*
X36602895Y-37484142D01*
X36650514Y-37531761D01*
X36745752Y-37579380D01*
X36936228Y-37579380D01*
X37031466Y-37531761D01*
X37079085Y-37484142D01*
X37126704Y-37388904D01*
X37126704Y-37198428D01*
X37079085Y-37103190D01*
X37031466Y-37055571D01*
X36936228Y-37007952D01*
X93510180Y-6840457D02*
X93033990Y-7173790D01*
X93510180Y-7411885D02*
X92510180Y-7411885D01*
X92510180Y-7030933D01*
X92557800Y-6935695D01*
X92605419Y-6888076D01*
X92700657Y-6840457D01*
X92843514Y-6840457D01*
X92938752Y-6888076D01*
X92986371Y-6935695D01*
X93033990Y-7030933D01*
X93033990Y-7411885D01*
X93510180Y-5888076D02*
X93510180Y-6459504D01*
X93510180Y-6173790D02*
X92510180Y-6173790D01*
X92653038Y-6269028D01*
X92748276Y-6364266D01*
X92795895Y-6459504D01*
X93510180Y-5411885D02*
X93510180Y-5221409D01*
X93462561Y-5126171D01*
X93414942Y-5078552D01*
X93272085Y-4983314D01*
X93081609Y-4935695D01*
X92700657Y-4935695D01*
X92605419Y-4983314D01*
X92557800Y-5030933D01*
X92510180Y-5126171D01*
X92510180Y-5316647D01*
X92557800Y-5411885D01*
X92605419Y-5459504D01*
X92700657Y-5507123D01*
X92938752Y-5507123D01*
X93033990Y-5459504D01*
X93081609Y-5411885D01*
X93129228Y-5316647D01*
X93129228Y-5126171D01*
X93081609Y-5030933D01*
X93033990Y-4983314D01*
X92938752Y-4935695D01*
X35094942Y-36680580D02*
X34761609Y-36204390D01*
X34523514Y-36680580D02*
X34523514Y-35680580D01*
X34904466Y-35680580D01*
X34999704Y-35728200D01*
X35047323Y-35775819D01*
X35094942Y-35871057D01*
X35094942Y-36013914D01*
X35047323Y-36109152D01*
X34999704Y-36156771D01*
X34904466Y-36204390D01*
X34523514Y-36204390D01*
X35475895Y-35775819D02*
X35523514Y-35728200D01*
X35618752Y-35680580D01*
X35856847Y-35680580D01*
X35952085Y-35728200D01*
X35999704Y-35775819D01*
X36047323Y-35871057D01*
X36047323Y-35966295D01*
X35999704Y-36109152D01*
X35428276Y-36680580D01*
X36047323Y-36680580D01*
X36666371Y-35680580D02*
X36761609Y-35680580D01*
X36856847Y-35728200D01*
X36904466Y-35775819D01*
X36952085Y-35871057D01*
X36999704Y-36061533D01*
X36999704Y-36299628D01*
X36952085Y-36490104D01*
X36904466Y-36585342D01*
X36856847Y-36632961D01*
X36761609Y-36680580D01*
X36666371Y-36680580D01*
X36571133Y-36632961D01*
X36523514Y-36585342D01*
X36475895Y-36490104D01*
X36428276Y-36299628D01*
X36428276Y-36061533D01*
X36475895Y-35871057D01*
X36523514Y-35775819D01*
X36571133Y-35728200D01*
X36666371Y-35680580D01*
X35475942Y-27647980D02*
X35142609Y-27171790D01*
X34904514Y-27647980D02*
X34904514Y-26647980D01*
X35285466Y-26647980D01*
X35380704Y-26695600D01*
X35428323Y-26743219D01*
X35475942Y-26838457D01*
X35475942Y-26981314D01*
X35428323Y-27076552D01*
X35380704Y-27124171D01*
X35285466Y-27171790D01*
X34904514Y-27171790D01*
X35856895Y-26743219D02*
X35904514Y-26695600D01*
X35999752Y-26647980D01*
X36237847Y-26647980D01*
X36333085Y-26695600D01*
X36380704Y-26743219D01*
X36428323Y-26838457D01*
X36428323Y-26933695D01*
X36380704Y-27076552D01*
X35809276Y-27647980D01*
X36428323Y-27647980D01*
X37380704Y-27647980D02*
X36809276Y-27647980D01*
X37094990Y-27647980D02*
X37094990Y-26647980D01*
X36999752Y-26790838D01*
X36904514Y-26886076D01*
X36809276Y-26933695D01*
X80470180Y-6840457D02*
X79993990Y-7173790D01*
X80470180Y-7411885D02*
X79470180Y-7411885D01*
X79470180Y-7030933D01*
X79517800Y-6935695D01*
X79565419Y-6888076D01*
X79660657Y-6840457D01*
X79803514Y-6840457D01*
X79898752Y-6888076D01*
X79946371Y-6935695D01*
X79993990Y-7030933D01*
X79993990Y-7411885D01*
X79565419Y-6459504D02*
X79517800Y-6411885D01*
X79470180Y-6316647D01*
X79470180Y-6078552D01*
X79517800Y-5983314D01*
X79565419Y-5935695D01*
X79660657Y-5888076D01*
X79755895Y-5888076D01*
X79898752Y-5935695D01*
X80470180Y-6507123D01*
X80470180Y-5888076D01*
X79565419Y-5507123D02*
X79517800Y-5459504D01*
X79470180Y-5364266D01*
X79470180Y-5126171D01*
X79517800Y-5030933D01*
X79565419Y-4983314D01*
X79660657Y-4935695D01*
X79755895Y-4935695D01*
X79898752Y-4983314D01*
X80470180Y-5554742D01*
X80470180Y-4935695D01*
X35628342Y-23406180D02*
X35295009Y-22929990D01*
X35056914Y-23406180D02*
X35056914Y-22406180D01*
X35437866Y-22406180D01*
X35533104Y-22453800D01*
X35580723Y-22501419D01*
X35628342Y-22596657D01*
X35628342Y-22739514D01*
X35580723Y-22834752D01*
X35533104Y-22882371D01*
X35437866Y-22929990D01*
X35056914Y-22929990D01*
X36009295Y-22501419D02*
X36056914Y-22453800D01*
X36152152Y-22406180D01*
X36390247Y-22406180D01*
X36485485Y-22453800D01*
X36533104Y-22501419D01*
X36580723Y-22596657D01*
X36580723Y-22691895D01*
X36533104Y-22834752D01*
X35961676Y-23406180D01*
X36580723Y-23406180D01*
X36914057Y-22406180D02*
X37533104Y-22406180D01*
X37199771Y-22787133D01*
X37342628Y-22787133D01*
X37437866Y-22834752D01*
X37485485Y-22882371D01*
X37533104Y-22977609D01*
X37533104Y-23215704D01*
X37485485Y-23310942D01*
X37437866Y-23358561D01*
X37342628Y-23406180D01*
X37056914Y-23406180D01*
X36961676Y-23358561D01*
X36914057Y-23310942D01*
X60672742Y-37315580D02*
X60339409Y-36839390D01*
X60101314Y-37315580D02*
X60101314Y-36315580D01*
X60482266Y-36315580D01*
X60577504Y-36363200D01*
X60625123Y-36410819D01*
X60672742Y-36506057D01*
X60672742Y-36648914D01*
X60625123Y-36744152D01*
X60577504Y-36791771D01*
X60482266Y-36839390D01*
X60101314Y-36839390D01*
X61053695Y-36410819D02*
X61101314Y-36363200D01*
X61196552Y-36315580D01*
X61434647Y-36315580D01*
X61529885Y-36363200D01*
X61577504Y-36410819D01*
X61625123Y-36506057D01*
X61625123Y-36601295D01*
X61577504Y-36744152D01*
X61006076Y-37315580D01*
X61625123Y-37315580D01*
X62482266Y-36648914D02*
X62482266Y-37315580D01*
X62244171Y-36267961D02*
X62006076Y-36982247D01*
X62625123Y-36982247D01*
X57696180Y-7805657D02*
X57219990Y-8138990D01*
X57696180Y-8377085D02*
X56696180Y-8377085D01*
X56696180Y-7996133D01*
X56743800Y-7900895D01*
X56791419Y-7853276D01*
X56886657Y-7805657D01*
X57029514Y-7805657D01*
X57124752Y-7853276D01*
X57172371Y-7900895D01*
X57219990Y-7996133D01*
X57219990Y-8377085D01*
X56791419Y-7424704D02*
X56743800Y-7377085D01*
X56696180Y-7281847D01*
X56696180Y-7043752D01*
X56743800Y-6948514D01*
X56791419Y-6900895D01*
X56886657Y-6853276D01*
X56981895Y-6853276D01*
X57124752Y-6900895D01*
X57696180Y-7472323D01*
X57696180Y-6853276D01*
X56696180Y-5948514D02*
X56696180Y-6424704D01*
X57172371Y-6472323D01*
X57124752Y-6424704D01*
X57077133Y-6329466D01*
X57077133Y-6091371D01*
X57124752Y-5996133D01*
X57172371Y-5948514D01*
X57267609Y-5900895D01*
X57505704Y-5900895D01*
X57600942Y-5948514D01*
X57648561Y-5996133D01*
X57696180Y-6091371D01*
X57696180Y-6329466D01*
X57648561Y-6424704D01*
X57600942Y-6472323D01*
X70269180Y-25204657D02*
X69792990Y-25537990D01*
X70269180Y-25776085D02*
X69269180Y-25776085D01*
X69269180Y-25395133D01*
X69316800Y-25299895D01*
X69364419Y-25252276D01*
X69459657Y-25204657D01*
X69602514Y-25204657D01*
X69697752Y-25252276D01*
X69745371Y-25299895D01*
X69792990Y-25395133D01*
X69792990Y-25776085D01*
X69364419Y-24823704D02*
X69316800Y-24776085D01*
X69269180Y-24680847D01*
X69269180Y-24442752D01*
X69316800Y-24347514D01*
X69364419Y-24299895D01*
X69459657Y-24252276D01*
X69554895Y-24252276D01*
X69697752Y-24299895D01*
X70269180Y-24871323D01*
X70269180Y-24252276D01*
X69269180Y-23395133D02*
X69269180Y-23585609D01*
X69316800Y-23680847D01*
X69364419Y-23728466D01*
X69507276Y-23823704D01*
X69697752Y-23871323D01*
X70078704Y-23871323D01*
X70173942Y-23823704D01*
X70221561Y-23776085D01*
X70269180Y-23680847D01*
X70269180Y-23490371D01*
X70221561Y-23395133D01*
X70173942Y-23347514D01*
X70078704Y-23299895D01*
X69840609Y-23299895D01*
X69745371Y-23347514D01*
X69697752Y-23395133D01*
X69650133Y-23490371D01*
X69650133Y-23680847D01*
X69697752Y-23776085D01*
X69745371Y-23823704D01*
X69840609Y-23871323D01*
X75938142Y-45824580D02*
X75604809Y-45348390D01*
X75366714Y-45824580D02*
X75366714Y-44824580D01*
X75747666Y-44824580D01*
X75842904Y-44872200D01*
X75890523Y-44919819D01*
X75938142Y-45015057D01*
X75938142Y-45157914D01*
X75890523Y-45253152D01*
X75842904Y-45300771D01*
X75747666Y-45348390D01*
X75366714Y-45348390D01*
X76319095Y-44919819D02*
X76366714Y-44872200D01*
X76461952Y-44824580D01*
X76700047Y-44824580D01*
X76795285Y-44872200D01*
X76842904Y-44919819D01*
X76890523Y-45015057D01*
X76890523Y-45110295D01*
X76842904Y-45253152D01*
X76271476Y-45824580D01*
X76890523Y-45824580D01*
X77223857Y-44824580D02*
X77890523Y-44824580D01*
X77461952Y-45824580D01*
X74439542Y-41735180D02*
X74106209Y-41258990D01*
X73868114Y-41735180D02*
X73868114Y-40735180D01*
X74249066Y-40735180D01*
X74344304Y-40782800D01*
X74391923Y-40830419D01*
X74439542Y-40925657D01*
X74439542Y-41068514D01*
X74391923Y-41163752D01*
X74344304Y-41211371D01*
X74249066Y-41258990D01*
X73868114Y-41258990D01*
X74820495Y-40830419D02*
X74868114Y-40782800D01*
X74963352Y-40735180D01*
X75201447Y-40735180D01*
X75296685Y-40782800D01*
X75344304Y-40830419D01*
X75391923Y-40925657D01*
X75391923Y-41020895D01*
X75344304Y-41163752D01*
X74772876Y-41735180D01*
X75391923Y-41735180D01*
X75963352Y-41163752D02*
X75868114Y-41116133D01*
X75820495Y-41068514D01*
X75772876Y-40973276D01*
X75772876Y-40925657D01*
X75820495Y-40830419D01*
X75868114Y-40782800D01*
X75963352Y-40735180D01*
X76153828Y-40735180D01*
X76249066Y-40782800D01*
X76296685Y-40830419D01*
X76344304Y-40925657D01*
X76344304Y-40973276D01*
X76296685Y-41068514D01*
X76249066Y-41116133D01*
X76153828Y-41163752D01*
X75963352Y-41163752D01*
X75868114Y-41211371D01*
X75820495Y-41258990D01*
X75772876Y-41354228D01*
X75772876Y-41544704D01*
X75820495Y-41639942D01*
X75868114Y-41687561D01*
X75963352Y-41735180D01*
X76153828Y-41735180D01*
X76249066Y-41687561D01*
X76296685Y-41639942D01*
X76344304Y-41544704D01*
X76344304Y-41354228D01*
X76296685Y-41258990D01*
X76249066Y-41211371D01*
X76153828Y-41163752D01*
X32296180Y-48572657D02*
X31819990Y-48905990D01*
X32296180Y-49144085D02*
X31296180Y-49144085D01*
X31296180Y-48763133D01*
X31343800Y-48667895D01*
X31391419Y-48620276D01*
X31486657Y-48572657D01*
X31629514Y-48572657D01*
X31724752Y-48620276D01*
X31772371Y-48667895D01*
X31819990Y-48763133D01*
X31819990Y-49144085D01*
X31391419Y-48191704D02*
X31343800Y-48144085D01*
X31296180Y-48048847D01*
X31296180Y-47810752D01*
X31343800Y-47715514D01*
X31391419Y-47667895D01*
X31486657Y-47620276D01*
X31581895Y-47620276D01*
X31724752Y-47667895D01*
X32296180Y-48239323D01*
X32296180Y-47620276D01*
X32296180Y-47144085D02*
X32296180Y-46953609D01*
X32248561Y-46858371D01*
X32200942Y-46810752D01*
X32058085Y-46715514D01*
X31867609Y-46667895D01*
X31486657Y-46667895D01*
X31391419Y-46715514D01*
X31343800Y-46763133D01*
X31296180Y-46858371D01*
X31296180Y-47048847D01*
X31343800Y-47144085D01*
X31391419Y-47191704D01*
X31486657Y-47239323D01*
X31724752Y-47239323D01*
X31819990Y-47191704D01*
X31867609Y-47144085D01*
X31915228Y-47048847D01*
X31915228Y-46858371D01*
X31867609Y-46763133D01*
X31819990Y-46715514D01*
X31724752Y-46667895D01*
X54419580Y-7729457D02*
X53943390Y-8062790D01*
X54419580Y-8300885D02*
X53419580Y-8300885D01*
X53419580Y-7919933D01*
X53467200Y-7824695D01*
X53514819Y-7777076D01*
X53610057Y-7729457D01*
X53752914Y-7729457D01*
X53848152Y-7777076D01*
X53895771Y-7824695D01*
X53943390Y-7919933D01*
X53943390Y-8300885D01*
X53419580Y-7396123D02*
X53419580Y-6777076D01*
X53800533Y-7110409D01*
X53800533Y-6967552D01*
X53848152Y-6872314D01*
X53895771Y-6824695D01*
X53991009Y-6777076D01*
X54229104Y-6777076D01*
X54324342Y-6824695D01*
X54371961Y-6872314D01*
X54419580Y-6967552D01*
X54419580Y-7253266D01*
X54371961Y-7348504D01*
X54324342Y-7396123D01*
X53419580Y-6158028D02*
X53419580Y-6062790D01*
X53467200Y-5967552D01*
X53514819Y-5919933D01*
X53610057Y-5872314D01*
X53800533Y-5824695D01*
X54038628Y-5824695D01*
X54229104Y-5872314D01*
X54324342Y-5919933D01*
X54371961Y-5967552D01*
X54419580Y-6062790D01*
X54419580Y-6158028D01*
X54371961Y-6253266D01*
X54324342Y-6300885D01*
X54229104Y-6348504D01*
X54038628Y-6396123D01*
X53800533Y-6396123D01*
X53610057Y-6348504D01*
X53514819Y-6300885D01*
X53467200Y-6253266D01*
X53419580Y-6158028D01*
X47540942Y-25656980D02*
X47207609Y-25180790D01*
X46969514Y-25656980D02*
X46969514Y-24656980D01*
X47350466Y-24656980D01*
X47445704Y-24704600D01*
X47493323Y-24752219D01*
X47540942Y-24847457D01*
X47540942Y-24990314D01*
X47493323Y-25085552D01*
X47445704Y-25133171D01*
X47350466Y-25180790D01*
X46969514Y-25180790D01*
X47874276Y-24656980D02*
X48493323Y-24656980D01*
X48159990Y-25037933D01*
X48302847Y-25037933D01*
X48398085Y-25085552D01*
X48445704Y-25133171D01*
X48493323Y-25228409D01*
X48493323Y-25466504D01*
X48445704Y-25561742D01*
X48398085Y-25609361D01*
X48302847Y-25656980D01*
X48017133Y-25656980D01*
X47921895Y-25609361D01*
X47874276Y-25561742D01*
X49445704Y-25656980D02*
X48874276Y-25656980D01*
X49159990Y-25656980D02*
X49159990Y-24656980D01*
X49064752Y-24799838D01*
X48969514Y-24895076D01*
X48874276Y-24942695D01*
X46753542Y-13017580D02*
X46420209Y-12541390D01*
X46182114Y-13017580D02*
X46182114Y-12017580D01*
X46563066Y-12017580D01*
X46658304Y-12065200D01*
X46705923Y-12112819D01*
X46753542Y-12208057D01*
X46753542Y-12350914D01*
X46705923Y-12446152D01*
X46658304Y-12493771D01*
X46563066Y-12541390D01*
X46182114Y-12541390D01*
X47086876Y-12017580D02*
X47705923Y-12017580D01*
X47372590Y-12398533D01*
X47515447Y-12398533D01*
X47610685Y-12446152D01*
X47658304Y-12493771D01*
X47705923Y-12589009D01*
X47705923Y-12827104D01*
X47658304Y-12922342D01*
X47610685Y-12969961D01*
X47515447Y-13017580D01*
X47229733Y-13017580D01*
X47134495Y-12969961D01*
X47086876Y-12922342D01*
X48086876Y-12112819D02*
X48134495Y-12065200D01*
X48229733Y-12017580D01*
X48467828Y-12017580D01*
X48563066Y-12065200D01*
X48610685Y-12112819D01*
X48658304Y-12208057D01*
X48658304Y-12303295D01*
X48610685Y-12446152D01*
X48039257Y-13017580D01*
X48658304Y-13017580D01*
X69979980Y-19261057D02*
X69503790Y-19594390D01*
X69979980Y-19832485D02*
X68979980Y-19832485D01*
X68979980Y-19451533D01*
X69027600Y-19356295D01*
X69075219Y-19308676D01*
X69170457Y-19261057D01*
X69313314Y-19261057D01*
X69408552Y-19308676D01*
X69456171Y-19356295D01*
X69503790Y-19451533D01*
X69503790Y-19832485D01*
X68979980Y-18927723D02*
X68979980Y-18308676D01*
X69360933Y-18642009D01*
X69360933Y-18499152D01*
X69408552Y-18403914D01*
X69456171Y-18356295D01*
X69551409Y-18308676D01*
X69789504Y-18308676D01*
X69884742Y-18356295D01*
X69932361Y-18403914D01*
X69979980Y-18499152D01*
X69979980Y-18784866D01*
X69932361Y-18880104D01*
X69884742Y-18927723D01*
X68979980Y-17975342D02*
X68979980Y-17356295D01*
X69360933Y-17689628D01*
X69360933Y-17546771D01*
X69408552Y-17451533D01*
X69456171Y-17403914D01*
X69551409Y-17356295D01*
X69789504Y-17356295D01*
X69884742Y-17403914D01*
X69932361Y-17451533D01*
X69979980Y-17546771D01*
X69979980Y-17832485D01*
X69932361Y-17927723D01*
X69884742Y-17975342D01*
X79835180Y-19616657D02*
X79358990Y-19949990D01*
X79835180Y-20188085D02*
X78835180Y-20188085D01*
X78835180Y-19807133D01*
X78882800Y-19711895D01*
X78930419Y-19664276D01*
X79025657Y-19616657D01*
X79168514Y-19616657D01*
X79263752Y-19664276D01*
X79311371Y-19711895D01*
X79358990Y-19807133D01*
X79358990Y-20188085D01*
X78835180Y-19283323D02*
X78835180Y-18664276D01*
X79216133Y-18997609D01*
X79216133Y-18854752D01*
X79263752Y-18759514D01*
X79311371Y-18711895D01*
X79406609Y-18664276D01*
X79644704Y-18664276D01*
X79739942Y-18711895D01*
X79787561Y-18759514D01*
X79835180Y-18854752D01*
X79835180Y-19140466D01*
X79787561Y-19235704D01*
X79739942Y-19283323D01*
X79168514Y-17807133D02*
X79835180Y-17807133D01*
X78787561Y-18045228D02*
X79501847Y-18283323D01*
X79501847Y-17664276D01*
X27144742Y8074219D02*
X26811409Y8550409D01*
X26573314Y8074219D02*
X26573314Y9074219D01*
X26954266Y9074219D01*
X27049504Y9026600D01*
X27097123Y8978980D01*
X27144742Y8883742D01*
X27144742Y8740885D01*
X27097123Y8645647D01*
X27049504Y8598028D01*
X26954266Y8550409D01*
X26573314Y8550409D01*
X27478076Y9074219D02*
X28097123Y9074219D01*
X27763790Y8693266D01*
X27906647Y8693266D01*
X28001885Y8645647D01*
X28049504Y8598028D01*
X28097123Y8502790D01*
X28097123Y8264695D01*
X28049504Y8169457D01*
X28001885Y8121838D01*
X27906647Y8074219D01*
X27620933Y8074219D01*
X27525695Y8121838D01*
X27478076Y8169457D01*
X29001885Y9074219D02*
X28525695Y9074219D01*
X28478076Y8598028D01*
X28525695Y8645647D01*
X28620933Y8693266D01*
X28859028Y8693266D01*
X28954266Y8645647D01*
X29001885Y8598028D01*
X29049504Y8502790D01*
X29049504Y8264695D01*
X29001885Y8169457D01*
X28954266Y8121838D01*
X28859028Y8074219D01*
X28620933Y8074219D01*
X28525695Y8121838D01*
X28478076Y8169457D01*
X54739980Y-7526257D02*
X54263790Y-7859590D01*
X54739980Y-8097685D02*
X53739980Y-8097685D01*
X53739980Y-7716733D01*
X53787600Y-7621495D01*
X53835219Y-7573876D01*
X53930457Y-7526257D01*
X54073314Y-7526257D01*
X54168552Y-7573876D01*
X54216171Y-7621495D01*
X54263790Y-7716733D01*
X54263790Y-8097685D01*
X53739980Y-7192923D02*
X53739980Y-6573876D01*
X54120933Y-6907209D01*
X54120933Y-6764352D01*
X54168552Y-6669114D01*
X54216171Y-6621495D01*
X54311409Y-6573876D01*
X54549504Y-6573876D01*
X54644742Y-6621495D01*
X54692361Y-6669114D01*
X54739980Y-6764352D01*
X54739980Y-7050066D01*
X54692361Y-7145304D01*
X54644742Y-7192923D01*
X53739980Y-5716733D02*
X53739980Y-5907209D01*
X53787600Y-6002447D01*
X53835219Y-6050066D01*
X53978076Y-6145304D01*
X54168552Y-6192923D01*
X54549504Y-6192923D01*
X54644742Y-6145304D01*
X54692361Y-6097685D01*
X54739980Y-6002447D01*
X54739980Y-5811971D01*
X54692361Y-5716733D01*
X54644742Y-5669114D01*
X54549504Y-5621495D01*
X54311409Y-5621495D01*
X54216171Y-5669114D01*
X54168552Y-5716733D01*
X54120933Y-5811971D01*
X54120933Y-6002447D01*
X54168552Y-6097685D01*
X54216171Y-6145304D01*
X54311409Y-6192923D01*
X27144742Y11579419D02*
X26811409Y12055609D01*
X26573314Y11579419D02*
X26573314Y12579419D01*
X26954266Y12579419D01*
X27049504Y12531800D01*
X27097123Y12484180D01*
X27144742Y12388942D01*
X27144742Y12246085D01*
X27097123Y12150847D01*
X27049504Y12103228D01*
X26954266Y12055609D01*
X26573314Y12055609D01*
X27478076Y12579419D02*
X28097123Y12579419D01*
X27763790Y12198466D01*
X27906647Y12198466D01*
X28001885Y12150847D01*
X28049504Y12103228D01*
X28097123Y12007990D01*
X28097123Y11769895D01*
X28049504Y11674657D01*
X28001885Y11627038D01*
X27906647Y11579419D01*
X27620933Y11579419D01*
X27525695Y11627038D01*
X27478076Y11674657D01*
X28430457Y12579419D02*
X29097123Y12579419D01*
X28668552Y11579419D01*
X36172580Y-6840457D02*
X35696390Y-7173790D01*
X36172580Y-7411885D02*
X35172580Y-7411885D01*
X35172580Y-7030933D01*
X35220200Y-6935695D01*
X35267819Y-6888076D01*
X35363057Y-6840457D01*
X35505914Y-6840457D01*
X35601152Y-6888076D01*
X35648771Y-6935695D01*
X35696390Y-7030933D01*
X35696390Y-7411885D01*
X35172580Y-6507123D02*
X35172580Y-5888076D01*
X35553533Y-6221409D01*
X35553533Y-6078552D01*
X35601152Y-5983314D01*
X35648771Y-5935695D01*
X35744009Y-5888076D01*
X35982104Y-5888076D01*
X36077342Y-5935695D01*
X36124961Y-5983314D01*
X36172580Y-6078552D01*
X36172580Y-6364266D01*
X36124961Y-6459504D01*
X36077342Y-6507123D01*
X36172580Y-5411885D02*
X36172580Y-5221409D01*
X36124961Y-5126171D01*
X36077342Y-5078552D01*
X35934485Y-4983314D01*
X35744009Y-4935695D01*
X35363057Y-4935695D01*
X35267819Y-4983314D01*
X35220200Y-5030933D01*
X35172580Y-5126171D01*
X35172580Y-5316647D01*
X35220200Y-5411885D01*
X35267819Y-5459504D01*
X35363057Y-5507123D01*
X35601152Y-5507123D01*
X35696390Y-5459504D01*
X35744009Y-5411885D01*
X35791628Y-5316647D01*
X35791628Y-5126171D01*
X35744009Y-5030933D01*
X35696390Y-4983314D01*
X35601152Y-4935695D01*
X27093942Y4696019D02*
X26760609Y5172209D01*
X26522514Y4696019D02*
X26522514Y5696019D01*
X26903466Y5696019D01*
X26998704Y5648400D01*
X27046323Y5600780D01*
X27093942Y5505542D01*
X27093942Y5362685D01*
X27046323Y5267447D01*
X26998704Y5219828D01*
X26903466Y5172209D01*
X26522514Y5172209D01*
X27951085Y5362685D02*
X27951085Y4696019D01*
X27712990Y5743638D02*
X27474895Y5029352D01*
X28093942Y5029352D01*
X28665371Y5696019D02*
X28760609Y5696019D01*
X28855847Y5648400D01*
X28903466Y5600780D01*
X28951085Y5505542D01*
X28998704Y5315066D01*
X28998704Y5076971D01*
X28951085Y4886495D01*
X28903466Y4791257D01*
X28855847Y4743638D01*
X28760609Y4696019D01*
X28665371Y4696019D01*
X28570133Y4743638D01*
X28522514Y4791257D01*
X28474895Y4886495D01*
X28427276Y5076971D01*
X28427276Y5315066D01*
X28474895Y5505542D01*
X28522514Y5600780D01*
X28570133Y5648400D01*
X28665371Y5696019D01*
X41597342Y759019D02*
X41264009Y1235209D01*
X41025914Y759019D02*
X41025914Y1759019D01*
X41406866Y1759019D01*
X41502104Y1711400D01*
X41549723Y1663780D01*
X41597342Y1568542D01*
X41597342Y1425685D01*
X41549723Y1330447D01*
X41502104Y1282828D01*
X41406866Y1235209D01*
X41025914Y1235209D01*
X42454485Y1425685D02*
X42454485Y759019D01*
X42216390Y1806638D02*
X41978295Y1092352D01*
X42597342Y1092352D01*
X43502104Y759019D02*
X42930676Y759019D01*
X43216390Y759019D02*
X43216390Y1759019D01*
X43121152Y1616161D01*
X43025914Y1520923D01*
X42930676Y1473304D01*
X41648142Y9182019D02*
X41314809Y9658209D01*
X41076714Y9182019D02*
X41076714Y10182019D01*
X41457666Y10182019D01*
X41552904Y10134400D01*
X41600523Y10086780D01*
X41648142Y9991542D01*
X41648142Y9848685D01*
X41600523Y9753447D01*
X41552904Y9705828D01*
X41457666Y9658209D01*
X41076714Y9658209D01*
X42505285Y9848685D02*
X42505285Y9182019D01*
X42267190Y10229638D02*
X42029095Y9515352D01*
X42648142Y9515352D01*
X42981476Y10086780D02*
X43029095Y10134400D01*
X43124333Y10182019D01*
X43362428Y10182019D01*
X43457666Y10134400D01*
X43505285Y10086780D01*
X43552904Y9991542D01*
X43552904Y9896304D01*
X43505285Y9753447D01*
X42933857Y9182019D01*
X43552904Y9182019D01*
X54805342Y4492819D02*
X54472009Y4969009D01*
X54233914Y4492819D02*
X54233914Y5492819D01*
X54614866Y5492819D01*
X54710104Y5445200D01*
X54757723Y5397580D01*
X54805342Y5302342D01*
X54805342Y5159485D01*
X54757723Y5064247D01*
X54710104Y5016628D01*
X54614866Y4969009D01*
X54233914Y4969009D01*
X55662485Y5159485D02*
X55662485Y4492819D01*
X55424390Y5540438D02*
X55186295Y4826152D01*
X55805342Y4826152D01*
X56091057Y5492819D02*
X56710104Y5492819D01*
X56376771Y5111866D01*
X56519628Y5111866D01*
X56614866Y5064247D01*
X56662485Y5016628D01*
X56710104Y4921390D01*
X56710104Y4683295D01*
X56662485Y4588057D01*
X56614866Y4540438D01*
X56519628Y4492819D01*
X56233914Y4492819D01*
X56138676Y4540438D01*
X56091057Y4588057D01*
X54779942Y13982619D02*
X54446609Y14458809D01*
X54208514Y13982619D02*
X54208514Y14982619D01*
X54589466Y14982619D01*
X54684704Y14935000D01*
X54732323Y14887380D01*
X54779942Y14792142D01*
X54779942Y14649285D01*
X54732323Y14554047D01*
X54684704Y14506428D01*
X54589466Y14458809D01*
X54208514Y14458809D01*
X55637085Y14649285D02*
X55637085Y13982619D01*
X55398990Y15030238D02*
X55160895Y14315952D01*
X55779942Y14315952D01*
X56589466Y14649285D02*
X56589466Y13982619D01*
X56351371Y15030238D02*
X56113276Y14315952D01*
X56732323Y14315952D01*
X34659961Y-62282380D02*
X34326628Y-61806190D01*
X34088533Y-62282380D02*
X34088533Y-61282380D01*
X34469485Y-61282380D01*
X34564723Y-61330000D01*
X34612342Y-61377619D01*
X34659961Y-61472857D01*
X34659961Y-61615714D01*
X34612342Y-61710952D01*
X34564723Y-61758571D01*
X34469485Y-61806190D01*
X34088533Y-61806190D01*
X34945676Y-61282380D02*
X35279009Y-62282380D01*
X35612342Y-61282380D01*
X36469485Y-62282380D02*
X35898057Y-62282380D01*
X36183771Y-62282380D02*
X36183771Y-61282380D01*
X36088533Y-61425238D01*
X35993295Y-61520476D01*
X35898057Y-61568095D01*
X25490561Y-62206180D02*
X25157228Y-61729990D01*
X24919133Y-62206180D02*
X24919133Y-61206180D01*
X25300085Y-61206180D01*
X25395323Y-61253800D01*
X25442942Y-61301419D01*
X25490561Y-61396657D01*
X25490561Y-61539514D01*
X25442942Y-61634752D01*
X25395323Y-61682371D01*
X25300085Y-61729990D01*
X24919133Y-61729990D01*
X25776276Y-61206180D02*
X26109609Y-62206180D01*
X26442942Y-61206180D01*
X26728657Y-61301419D02*
X26776276Y-61253800D01*
X26871514Y-61206180D01*
X27109609Y-61206180D01*
X27204847Y-61253800D01*
X27252466Y-61301419D01*
X27300085Y-61396657D01*
X27300085Y-61491895D01*
X27252466Y-61634752D01*
X26681038Y-62206180D01*
X27300085Y-62206180D01*
X16219561Y-62231580D02*
X15886228Y-61755390D01*
X15648133Y-62231580D02*
X15648133Y-61231580D01*
X16029085Y-61231580D01*
X16124323Y-61279200D01*
X16171942Y-61326819D01*
X16219561Y-61422057D01*
X16219561Y-61564914D01*
X16171942Y-61660152D01*
X16124323Y-61707771D01*
X16029085Y-61755390D01*
X15648133Y-61755390D01*
X16505276Y-61231580D02*
X16838609Y-62231580D01*
X17171942Y-61231580D01*
X17410038Y-61231580D02*
X18029085Y-61231580D01*
X17695752Y-61612533D01*
X17838609Y-61612533D01*
X17933847Y-61660152D01*
X17981466Y-61707771D01*
X18029085Y-61803009D01*
X18029085Y-62041104D01*
X17981466Y-62136342D01*
X17933847Y-62183961D01*
X17838609Y-62231580D01*
X17552895Y-62231580D01*
X17457657Y-62183961D01*
X17410038Y-62136342D01*
X14973466Y15971438D02*
X15116323Y15923819D01*
X15354419Y15923819D01*
X15449657Y15971438D01*
X15497276Y16019057D01*
X15544895Y16114295D01*
X15544895Y16209533D01*
X15497276Y16304771D01*
X15449657Y16352390D01*
X15354419Y16400009D01*
X15163942Y16447628D01*
X15068704Y16495247D01*
X15021085Y16542866D01*
X14973466Y16638104D01*
X14973466Y16733342D01*
X15021085Y16828580D01*
X15068704Y16876200D01*
X15163942Y16923819D01*
X15402038Y16923819D01*
X15544895Y16876200D01*
X15878228Y16923819D02*
X16116323Y15923819D01*
X16306800Y16638104D01*
X16497276Y15923819D01*
X16735371Y16923819D01*
X17640133Y15923819D02*
X17068704Y15923819D01*
X17354419Y15923819D02*
X17354419Y16923819D01*
X17259180Y16780961D01*
X17163942Y16685723D01*
X17068704Y16638104D01*
X60706095Y-36644780D02*
X60706095Y-37454304D01*
X60753714Y-37549542D01*
X60801333Y-37597161D01*
X60896571Y-37644780D01*
X61087047Y-37644780D01*
X61182285Y-37597161D01*
X61229904Y-37549542D01*
X61277523Y-37454304D01*
X61277523Y-36644780D01*
X62182285Y-36978114D02*
X62182285Y-37644780D01*
X61944190Y-36597161D02*
X61706095Y-37311447D01*
X62325142Y-37311447D01*
X74959780Y-7416704D02*
X75769304Y-7416704D01*
X75864542Y-7369085D01*
X75912161Y-7321466D01*
X75959780Y-7226228D01*
X75959780Y-7035752D01*
X75912161Y-6940514D01*
X75864542Y-6892895D01*
X75769304Y-6845276D01*
X74959780Y-6845276D01*
X74959780Y-5892895D02*
X74959780Y-6369085D01*
X75435971Y-6416704D01*
X75388352Y-6369085D01*
X75340733Y-6273847D01*
X75340733Y-6035752D01*
X75388352Y-5940514D01*
X75435971Y-5892895D01*
X75531209Y-5845276D01*
X75769304Y-5845276D01*
X75864542Y-5892895D01*
X75912161Y-5940514D01*
X75959780Y-6035752D01*
X75959780Y-6273847D01*
X75912161Y-6369085D01*
X75864542Y-6416704D01*
X31398780Y-6908704D02*
X32208304Y-6908704D01*
X32303542Y-6861085D01*
X32351161Y-6813466D01*
X32398780Y-6718228D01*
X32398780Y-6527752D01*
X32351161Y-6432514D01*
X32303542Y-6384895D01*
X32208304Y-6337276D01*
X31398780Y-6337276D01*
X31398780Y-5432514D02*
X31398780Y-5622990D01*
X31446400Y-5718228D01*
X31494019Y-5765847D01*
X31636876Y-5861085D01*
X31827352Y-5908704D01*
X32208304Y-5908704D01*
X32303542Y-5861085D01*
X32351161Y-5813466D01*
X32398780Y-5718228D01*
X32398780Y-5527752D01*
X32351161Y-5432514D01*
X32303542Y-5384895D01*
X32208304Y-5337276D01*
X31970209Y-5337276D01*
X31874971Y-5384895D01*
X31827352Y-5432514D01*
X31779733Y-5527752D01*
X31779733Y-5718228D01*
X31827352Y-5813466D01*
X31874971Y-5861085D01*
X31970209Y-5908704D01*
X46181580Y-7035704D02*
X46991104Y-7035704D01*
X47086342Y-6988085D01*
X47133961Y-6940466D01*
X47181580Y-6845228D01*
X47181580Y-6654752D01*
X47133961Y-6559514D01*
X47086342Y-6511895D01*
X46991104Y-6464276D01*
X46181580Y-6464276D01*
X46181580Y-6083323D02*
X46181580Y-5416657D01*
X47181580Y-5845228D01*
X9704733Y-11094342D02*
X9657114Y-11141961D01*
X9514257Y-11189580D01*
X9419019Y-11189580D01*
X9276161Y-11141961D01*
X9180923Y-11046723D01*
X9133304Y-10951485D01*
X9085685Y-10761009D01*
X9085685Y-10618152D01*
X9133304Y-10427676D01*
X9180923Y-10332438D01*
X9276161Y-10237200D01*
X9419019Y-10189580D01*
X9514257Y-10189580D01*
X9657114Y-10237200D01*
X9704733Y-10284819D01*
X10657114Y-11189580D02*
X10085685Y-11189580D01*
X10371400Y-11189580D02*
X10371400Y-10189580D01*
X10276161Y-10332438D01*
X10180923Y-10427676D01*
X10085685Y-10475295D01*
X83992733Y-22919342D02*
X83945114Y-22966961D01*
X83802257Y-23014580D01*
X83707019Y-23014580D01*
X83564161Y-22966961D01*
X83468923Y-22871723D01*
X83421304Y-22776485D01*
X83373685Y-22586009D01*
X83373685Y-22443152D01*
X83421304Y-22252676D01*
X83468923Y-22157438D01*
X83564161Y-22062200D01*
X83707019Y-22014580D01*
X83802257Y-22014580D01*
X83945114Y-22062200D01*
X83992733Y-22109819D01*
X84373685Y-22109819D02*
X84421304Y-22062200D01*
X84516542Y-22014580D01*
X84754638Y-22014580D01*
X84849876Y-22062200D01*
X84897495Y-22109819D01*
X84945114Y-22205057D01*
X84945114Y-22300295D01*
X84897495Y-22443152D01*
X84326066Y-23014580D01*
X84945114Y-23014580D01*
X47746542Y-56157466D02*
X47794161Y-56205085D01*
X47841780Y-56347942D01*
X47841780Y-56443180D01*
X47794161Y-56586038D01*
X47698923Y-56681276D01*
X47603685Y-56728895D01*
X47413209Y-56776514D01*
X47270352Y-56776514D01*
X47079876Y-56728895D01*
X46984638Y-56681276D01*
X46889400Y-56586038D01*
X46841780Y-56443180D01*
X46841780Y-56347942D01*
X46889400Y-56205085D01*
X46937019Y-56157466D01*
X46841780Y-55824133D02*
X46841780Y-55205085D01*
X47222733Y-55538419D01*
X47222733Y-55395561D01*
X47270352Y-55300323D01*
X47317971Y-55252704D01*
X47413209Y-55205085D01*
X47651304Y-55205085D01*
X47746542Y-55252704D01*
X47794161Y-55300323D01*
X47841780Y-55395561D01*
X47841780Y-55681276D01*
X47794161Y-55776514D01*
X47746542Y-55824133D01*
X49150933Y-15869542D02*
X49103314Y-15917161D01*
X48960457Y-15964780D01*
X48865219Y-15964780D01*
X48722361Y-15917161D01*
X48627123Y-15821923D01*
X48579504Y-15726685D01*
X48531885Y-15536209D01*
X48531885Y-15393352D01*
X48579504Y-15202876D01*
X48627123Y-15107638D01*
X48722361Y-15012400D01*
X48865219Y-14964780D01*
X48960457Y-14964780D01*
X49103314Y-15012400D01*
X49150933Y-15060019D01*
X50008076Y-14964780D02*
X49817600Y-14964780D01*
X49722361Y-15012400D01*
X49674742Y-15060019D01*
X49579504Y-15202876D01*
X49531885Y-15393352D01*
X49531885Y-15774304D01*
X49579504Y-15869542D01*
X49627123Y-15917161D01*
X49722361Y-15964780D01*
X49912838Y-15964780D01*
X50008076Y-15917161D01*
X50055695Y-15869542D01*
X50103314Y-15774304D01*
X50103314Y-15536209D01*
X50055695Y-15440971D01*
X50008076Y-15393352D01*
X49912838Y-15345733D01*
X49722361Y-15345733D01*
X49627123Y-15393352D01*
X49579504Y-15440971D01*
X49531885Y-15536209D01*
X56218742Y-50017666D02*
X56266361Y-50065285D01*
X56313980Y-50208142D01*
X56313980Y-50303380D01*
X56266361Y-50446238D01*
X56171123Y-50541476D01*
X56075885Y-50589095D01*
X55885409Y-50636714D01*
X55742552Y-50636714D01*
X55552076Y-50589095D01*
X55456838Y-50541476D01*
X55361600Y-50446238D01*
X55313980Y-50303380D01*
X55313980Y-50208142D01*
X55361600Y-50065285D01*
X55409219Y-50017666D01*
X55313980Y-49684333D02*
X55313980Y-49017666D01*
X56313980Y-49446238D01*
X56459133Y829657D02*
X56411514Y782038D01*
X56268657Y734419D01*
X56173419Y734419D01*
X56030561Y782038D01*
X55935323Y877276D01*
X55887704Y972514D01*
X55840085Y1162990D01*
X55840085Y1305847D01*
X55887704Y1496323D01*
X55935323Y1591561D01*
X56030561Y1686800D01*
X56173419Y1734419D01*
X56268657Y1734419D01*
X56411514Y1686800D01*
X56459133Y1639180D01*
X57030561Y1305847D02*
X56935323Y1353466D01*
X56887704Y1401085D01*
X56840085Y1496323D01*
X56840085Y1543942D01*
X56887704Y1639180D01*
X56935323Y1686800D01*
X57030561Y1734419D01*
X57221038Y1734419D01*
X57316276Y1686800D01*
X57363895Y1639180D01*
X57411514Y1543942D01*
X57411514Y1496323D01*
X57363895Y1401085D01*
X57316276Y1353466D01*
X57221038Y1305847D01*
X57030561Y1305847D01*
X56935323Y1258228D01*
X56887704Y1210609D01*
X56840085Y1115371D01*
X56840085Y924895D01*
X56887704Y829657D01*
X56935323Y782038D01*
X57030561Y734419D01*
X57221038Y734419D01*
X57316276Y782038D01*
X57363895Y829657D01*
X57411514Y924895D01*
X57411514Y1115371D01*
X57363895Y1210609D01*
X57316276Y1258228D01*
X57221038Y1305847D01*
X91893561Y-31509219D02*
X91798323Y-31461600D01*
X91703085Y-31366361D01*
X91560228Y-31223504D01*
X91464990Y-31175885D01*
X91369752Y-31175885D01*
X91417371Y-31413980D02*
X91322133Y-31366361D01*
X91226895Y-31271123D01*
X91179276Y-31080647D01*
X91179276Y-30747314D01*
X91226895Y-30556838D01*
X91322133Y-30461600D01*
X91417371Y-30413980D01*
X91607847Y-30413980D01*
X91703085Y-30461600D01*
X91798323Y-30556838D01*
X91845942Y-30747314D01*
X91845942Y-31080647D01*
X91798323Y-31271123D01*
X91703085Y-31366361D01*
X91607847Y-31413980D01*
X91417371Y-31413980D01*
X92798323Y-31413980D02*
X92226895Y-31413980D01*
X92512609Y-31413980D02*
X92512609Y-30413980D01*
X92417371Y-30556838D01*
X92322133Y-30652076D01*
X92226895Y-30699695D01*
X94382761Y-22365219D02*
X94287523Y-22317600D01*
X94192285Y-22222361D01*
X94049428Y-22079504D01*
X93954190Y-22031885D01*
X93858952Y-22031885D01*
X93906571Y-22269980D02*
X93811333Y-22222361D01*
X93716095Y-22127123D01*
X93668476Y-21936647D01*
X93668476Y-21603314D01*
X93716095Y-21412838D01*
X93811333Y-21317600D01*
X93906571Y-21269980D01*
X94097047Y-21269980D01*
X94192285Y-21317600D01*
X94287523Y-21412838D01*
X94335142Y-21603314D01*
X94335142Y-21936647D01*
X94287523Y-22127123D01*
X94192285Y-22222361D01*
X94097047Y-22269980D01*
X93906571Y-22269980D01*
X94716095Y-21365219D02*
X94763714Y-21317600D01*
X94858952Y-21269980D01*
X95097047Y-21269980D01*
X95192285Y-21317600D01*
X95239904Y-21365219D01*
X95287523Y-21460457D01*
X95287523Y-21555695D01*
X95239904Y-21698552D01*
X94668476Y-22269980D01*
X95287523Y-22269980D01*
X91749180Y-7289704D02*
X92558704Y-7289704D01*
X92653942Y-7242085D01*
X92701561Y-7194466D01*
X92749180Y-7099228D01*
X92749180Y-6908752D01*
X92701561Y-6813514D01*
X92653942Y-6765895D01*
X92558704Y-6718276D01*
X91749180Y-6718276D01*
X91749180Y-6337323D02*
X91749180Y-5718276D01*
X92130133Y-6051609D01*
X92130133Y-5908752D01*
X92177752Y-5813514D01*
X92225371Y-5765895D01*
X92320609Y-5718276D01*
X92558704Y-5718276D01*
X92653942Y-5765895D01*
X92701561Y-5813514D01*
X92749180Y-5908752D01*
X92749180Y-6194466D01*
X92701561Y-6289704D01*
X92653942Y-6337323D01*
M02*
