G04 #@! TF.GenerationSoftware,KiCad,Pcbnew,(5.1.2-1)-1*
G04 #@! TF.CreationDate,2023-04-27T09:28:53+02:00*
G04 #@! TF.ProjectId,vco,76636f2e-6b69-4636-9164-5f7063625858,rev?*
G04 #@! TF.SameCoordinates,Original*
G04 #@! TF.FileFunction,Legend,Bot*
G04 #@! TF.FilePolarity,Positive*
%FSLAX46Y46*%
G04 Gerber Fmt 4.6, Leading zero omitted, Abs format (unit mm)*
G04 Created by KiCad (PCBNEW (5.1.2-1)-1) date 2023-04-27 09:28:53*
%MOMM*%
%LPD*%
G04 APERTURE LIST*
%ADD10C,0.150000*%
%ADD11C,0.120000*%
G04 APERTURE END LIST*
D10*
X47768780Y50534292D02*
X47959254Y50533264D01*
X48054747Y50580368D01*
X48102623Y50627729D01*
X48198631Y50770070D01*
X48247277Y50960286D01*
X48249334Y51341233D01*
X48202230Y51436727D01*
X48154869Y51484602D01*
X48059889Y51532735D01*
X47869416Y51533763D01*
X47773922Y51486659D01*
X47726046Y51439298D01*
X47677914Y51344318D01*
X47676628Y51106226D01*
X47723733Y51010733D01*
X47771094Y50962857D01*
X47866074Y50914725D01*
X48056547Y50913696D01*
X48152041Y50960801D01*
X48199916Y51008162D01*
X48248049Y51103141D01*
X48819469Y51100056D02*
X48724489Y51148189D01*
X48677128Y51196064D01*
X48630024Y51291558D01*
X48630281Y51339177D01*
X48678413Y51434156D01*
X48726289Y51481517D01*
X48821783Y51528622D01*
X49012256Y51527593D01*
X49107236Y51479461D01*
X49154597Y51431585D01*
X49201701Y51336092D01*
X49201444Y51288473D01*
X49153312Y51193494D01*
X49105436Y51146132D01*
X49009942Y51099028D01*
X48819469Y51100056D01*
X48723975Y51052952D01*
X48676100Y51005591D01*
X48627967Y50910611D01*
X48626939Y50720138D01*
X48674043Y50624644D01*
X48721404Y50576769D01*
X48816384Y50528636D01*
X49006857Y50527608D01*
X49102351Y50574712D01*
X49150227Y50622073D01*
X49198359Y50717053D01*
X49199387Y50907526D01*
X49152283Y51003020D01*
X49104922Y51050896D01*
X49009942Y51099028D01*
X49673771Y50571627D02*
X49673514Y50524009D01*
X49625382Y50429029D01*
X49577506Y50381668D01*
X50149698Y50521438D02*
X50340171Y50520410D01*
X50435665Y50567514D01*
X50483540Y50614875D01*
X50579548Y50757216D01*
X50628195Y50947432D01*
X50630252Y51328379D01*
X50583148Y51423873D01*
X50535786Y51471748D01*
X50440807Y51519881D01*
X50250333Y51520909D01*
X50154839Y51473805D01*
X50106964Y51426444D01*
X50058832Y51331464D01*
X50057546Y51093372D01*
X50104650Y50997879D01*
X50152012Y50950003D01*
X50246991Y50901871D01*
X50437465Y50900842D01*
X50532958Y50947946D01*
X50580834Y50995308D01*
X50628966Y51090287D01*
X50964609Y51517053D02*
X51583647Y51513711D01*
X51248262Y51134564D01*
X51391117Y51133792D01*
X51486097Y51085660D01*
X51533458Y51037785D01*
X51580562Y50942291D01*
X51579277Y50704199D01*
X51531144Y50609219D01*
X51483269Y50561858D01*
X51387775Y50514754D01*
X51102065Y50516296D01*
X51007085Y50564429D01*
X50959724Y50612304D01*
X52202686Y51510369D02*
X52297922Y51509855D01*
X52392902Y51461722D01*
X52440263Y51413847D01*
X52487368Y51318353D01*
X52533958Y51127623D01*
X52532672Y50889531D01*
X52484026Y50699314D01*
X52435893Y50604335D01*
X52388018Y50556974D01*
X52292524Y50509869D01*
X52197287Y50510383D01*
X52102307Y50558516D01*
X52054946Y50606391D01*
X52007842Y50701885D01*
X51961252Y50892616D01*
X51962537Y51130707D01*
X52011184Y51320924D01*
X52059317Y51415903D01*
X52107192Y51463265D01*
X52202686Y51510369D01*
X53721074Y50502157D02*
X53724674Y51168814D01*
X53724159Y51073577D02*
X53772035Y51120938D01*
X53867529Y51168043D01*
X54010384Y51167271D01*
X54105363Y51119139D01*
X54152467Y51023645D01*
X54149640Y50499843D01*
X54152467Y51023645D02*
X54200600Y51118625D01*
X54296094Y51165729D01*
X54438949Y51164958D01*
X54533928Y51116825D01*
X54581033Y51021331D01*
X54578205Y50497529D01*
X55054388Y50494959D02*
X55057987Y51161616D01*
X55057473Y51066379D02*
X55105349Y51113740D01*
X55200842Y51160844D01*
X55343698Y51160073D01*
X55438677Y51111941D01*
X55485781Y51016447D01*
X55482953Y50492645D01*
X55485781Y51016447D02*
X55533914Y51111426D01*
X55629408Y51158531D01*
X55772263Y51157759D01*
X55867242Y51109627D01*
X55914347Y51014133D01*
X55911519Y50490331D01*
D11*
X2347650Y49961880D02*
X101276204Y49427788D01*
X2087246Y1727892D02*
X2350816Y50548292D01*
X101015800Y1193800D02*
X101279370Y50014200D01*
X101276204Y49427788D02*
X100146551Y48847457D01*
X101276204Y49427788D02*
X100152883Y50020282D01*
X2347650Y49961880D02*
X3470971Y49369386D01*
X2347650Y49961880D02*
X3477303Y50542211D01*
M02*
