G04 #@! TF.GenerationSoftware,KiCad,Pcbnew,(5.1.2-1)-1*
G04 #@! TF.CreationDate,2023-04-27T09:28:52+02:00*
G04 #@! TF.ProjectId,vco,76636f2e-6b69-4636-9164-5f7063625858,rev?*
G04 #@! TF.SameCoordinates,Original*
G04 #@! TF.FileFunction,Copper,L2,Bot*
G04 #@! TF.FilePolarity,Positive*
%FSLAX46Y46*%
G04 Gerber Fmt 4.6, Leading zero omitted, Abs format (unit mm)*
G04 Created by KiCad (PCBNEW (5.1.2-1)-1) date 2023-04-27 09:28:52*
%MOMM*%
%LPD*%
G04 APERTURE LIST*
%ADD10R,1.600000X2.400000*%
%ADD11O,1.600000X2.400000*%
%ADD12C,3.000000*%
%ADD13C,1.500000*%
%ADD14R,1.500000X1.500000*%
%ADD15O,1.600000X1.600000*%
%ADD16C,1.600000*%
%ADD17C,2.000000*%
%ADD18O,2.000000X2.000000*%
%ADD19R,3.000000X1.700000*%
%ADD20O,3.000000X1.700000*%
%ADD21R,2.400000X2.400000*%
%ADD22O,2.400000X2.400000*%
%ADD23R,2.400000X1.600000*%
%ADD24O,2.400000X1.600000*%
%ADD25R,1.600000X1.600000*%
%ADD26C,1.440000*%
%ADD27R,1.700000X3.000000*%
%ADD28O,1.700000X3.000000*%
%ADD29R,1.700000X1.700000*%
%ADD30O,1.700000X1.700000*%
%ADD31C,0.700000*%
G04 APERTURE END LIST*
D10*
X87731600Y-56413400D03*
D11*
X95351600Y-48793400D03*
X90271600Y-56413400D03*
X92811600Y-48793400D03*
X92811600Y-56413400D03*
X90271600Y-48793400D03*
X95351600Y-56413400D03*
X87731600Y-48793400D03*
D12*
X6000000Y11000000D03*
X6000000Y6000000D03*
X6000000Y1000000D03*
X6000000Y-19000000D03*
X6000000Y-24000000D03*
X6000000Y-29000000D03*
D13*
X47904400Y-27813000D03*
X50444400Y-25273000D03*
D14*
X50444400Y-30353000D03*
D15*
X56025400Y-19177000D03*
D16*
X63525400Y-19177000D03*
D17*
X79730600Y-34163000D03*
D18*
X79730600Y-24003000D03*
D19*
X10617200Y-44348400D03*
D20*
X10617200Y-46888400D03*
X10617200Y-49428400D03*
X10617200Y-51968400D03*
D17*
X6959600Y-38201600D03*
D18*
X17119600Y-38201600D03*
D21*
X31978600Y-18618200D03*
D22*
X13978600Y-18618200D03*
D23*
X18211800Y-22733000D03*
D24*
X25831800Y-30353000D03*
X18211800Y-25273000D03*
X25831800Y-27813000D03*
X18211800Y-27813000D03*
X25831800Y-25273000D03*
X18211800Y-30353000D03*
X25831800Y-22733000D03*
D17*
X6045200Y-9601200D03*
D25*
X32562800Y-14274800D03*
D15*
X40182800Y-14274800D03*
D26*
X45720000Y-43561000D03*
X45720000Y-46101000D03*
X45720000Y-48641000D03*
D27*
X96977200Y9753600D03*
D28*
X94437200Y9753600D03*
X91897200Y9753600D03*
X89357200Y9753600D03*
X86817200Y9753600D03*
X84277200Y9753600D03*
X81737200Y9753600D03*
X79197200Y9753600D03*
X76657200Y9753600D03*
X74117200Y9753600D03*
D27*
X40868600Y-64058800D03*
D28*
X38328600Y-64058800D03*
X35788600Y-64058800D03*
X33248600Y-64058800D03*
X30708600Y-64058800D03*
D12*
X67437000Y7543800D03*
D17*
X89662000Y-33299400D03*
D18*
X99822000Y-33299400D03*
D17*
X40817800Y-42900600D03*
D18*
X40817800Y-53060600D03*
D17*
X93294200Y-38912800D03*
D18*
X83134200Y-38912800D03*
D17*
X84988400Y-23495000D03*
D18*
X84988400Y-33655000D03*
X6934200Y-52527200D03*
D17*
X6934200Y-42367200D03*
D18*
X7366000Y-34086800D03*
D17*
X17526000Y-34086800D03*
X56540400Y-60706000D03*
D18*
X66700400Y-60706000D03*
X37465000Y-53009800D03*
D17*
X37465000Y-42849800D03*
D18*
X27787600Y-53035200D03*
D17*
X27787600Y-42875200D03*
D18*
X21285200Y-53060600D03*
D17*
X21285200Y-42900600D03*
D18*
X14757400Y-53060600D03*
D17*
X14757400Y-42900600D03*
X30988000Y-42875200D03*
D18*
X30988000Y-53035200D03*
X24536400Y-53009800D03*
D17*
X24536400Y-42849800D03*
D18*
X18008600Y-53060600D03*
D17*
X18008600Y-42900600D03*
D18*
X70358000Y-62966600D03*
D17*
X70358000Y-52806600D03*
D18*
X46761400Y-62306200D03*
D17*
X46761400Y-52146200D03*
D18*
X40944800Y-39497000D03*
D17*
X30784800Y-39497000D03*
X95427800Y-11277600D03*
D18*
X95427800Y-1117600D03*
D17*
X40817800Y-33858200D03*
D18*
X30657800Y-33858200D03*
X41198800Y-29565600D03*
D17*
X31038800Y-29565600D03*
X77647800Y-1117600D03*
D18*
X77647800Y-11277600D03*
X41351200Y-25323800D03*
D17*
X31191200Y-25323800D03*
X66395600Y-34493200D03*
D18*
X56235600Y-34493200D03*
D17*
X59613800Y-12242800D03*
D18*
X59613800Y-2082800D03*
D17*
X72186800Y-29641800D03*
D18*
X72186800Y-19481800D03*
D17*
X81661000Y-43002200D03*
D18*
X71501000Y-43002200D03*
X70002400Y-38912800D03*
D17*
X80162400Y-38912800D03*
D18*
X34213800Y-42849800D03*
D17*
X34213800Y-53009800D03*
D18*
X56337200Y-2006600D03*
D17*
X56337200Y-12166600D03*
X53263800Y-22834600D03*
D18*
X43103800Y-22834600D03*
X52476400Y-14935200D03*
D17*
X42316400Y-14935200D03*
X67157600Y-13538200D03*
D18*
X67157600Y-23698200D03*
X77012800Y-24053800D03*
D17*
X77012800Y-13893800D03*
X32867600Y10896600D03*
D18*
X22707600Y10896600D03*
X51917600Y-11963400D03*
D17*
X51917600Y-1803400D03*
D18*
X22707600Y14401800D03*
D17*
X32867600Y14401800D03*
X33350200Y-1117600D03*
D18*
X33350200Y-11277600D03*
D17*
X32816800Y7518400D03*
D18*
X22656800Y7518400D03*
X37160200Y3581400D03*
D17*
X47320200Y3581400D03*
D18*
X47371000Y7264400D03*
D17*
X37211000Y7264400D03*
X60528200Y7315200D03*
D18*
X50368200Y7315200D03*
D17*
X50342800Y12065000D03*
D18*
X60502800Y12065000D03*
D26*
X32715200Y-58420000D03*
X35255200Y-58420000D03*
X37795200Y-58420000D03*
X23545800Y-58343800D03*
X26085800Y-58343800D03*
X28625800Y-58343800D03*
X19354800Y-58369200D03*
X16814800Y-58369200D03*
X14274800Y-58369200D03*
D29*
X15036800Y14046200D03*
D30*
X17576800Y14046200D03*
X15036800Y11506200D03*
X17576800Y11506200D03*
X15036800Y8966200D03*
X17576800Y8966200D03*
X15036800Y6426200D03*
X17576800Y6426200D03*
X15036800Y3886200D03*
X17576800Y3886200D03*
D23*
X57658000Y-39522400D03*
D24*
X65278000Y-54762400D03*
X57658000Y-42062400D03*
X65278000Y-52222400D03*
X57658000Y-44602400D03*
X65278000Y-49682400D03*
X57658000Y-47142400D03*
X65278000Y-47142400D03*
X57658000Y-49682400D03*
X65278000Y-44602400D03*
X57658000Y-52222400D03*
X65278000Y-42062400D03*
X57658000Y-54762400D03*
X65278000Y-39522400D03*
D11*
X73177400Y-10464800D03*
X65557400Y-2844800D03*
X70637400Y-10464800D03*
X68097400Y-2844800D03*
X68097400Y-10464800D03*
X70637400Y-2844800D03*
X65557400Y-10464800D03*
D10*
X73177400Y-2844800D03*
X29616400Y-2336800D03*
D11*
X21996400Y-9956800D03*
X27076400Y-2336800D03*
X24536400Y-9956800D03*
X24536400Y-2336800D03*
X27076400Y-9956800D03*
X21996400Y-2336800D03*
X29616400Y-9956800D03*
X44399200Y-10083800D03*
X36779200Y-2463800D03*
X41859200Y-10083800D03*
X39319200Y-2463800D03*
X39319200Y-10083800D03*
X41859200Y-2463800D03*
X36779200Y-10083800D03*
D10*
X44399200Y-2463800D03*
D15*
X13621400Y-13157200D03*
D16*
X6121400Y-13157200D03*
X87909400Y-20142200D03*
D15*
X80409400Y-20142200D03*
D16*
X49809400Y-59740800D03*
D15*
X49809400Y-52240800D03*
X53067600Y-17932400D03*
D16*
X45567600Y-17932400D03*
X53441600Y-46101000D03*
D15*
X53441600Y-53601000D03*
D16*
X60375800Y3606800D03*
D15*
X52875800Y3606800D03*
D13*
X91998800Y-29311600D03*
X89458800Y-26771600D03*
D14*
X94538800Y-26771600D03*
X97028000Y-17627600D03*
D13*
X91948000Y-17627600D03*
X94488000Y-20167600D03*
D11*
X89966800Y-10337800D03*
X82346800Y-2717800D03*
X87426800Y-10337800D03*
X84886800Y-2717800D03*
X84886800Y-10337800D03*
X87426800Y-2717800D03*
X82346800Y-10337800D03*
D10*
X89966800Y-2717800D03*
D17*
X20599400Y-38557200D03*
X20523200Y-34163000D03*
X53543200Y-36804600D03*
X45542200Y-36753800D03*
X14510400Y-642000D03*
X14452600Y-10414000D03*
X45288200Y-27635200D03*
X45339000Y-34213800D03*
X99009200Y-3302000D03*
X98044000Y-10007600D03*
X15443200Y-62230000D03*
X15392400Y-66294000D03*
X93116400Y-9525000D03*
X93116400Y-2438400D03*
X89357200Y4902200D03*
X81610200Y-50927000D03*
X81610200Y-55524400D03*
X84277200Y13309600D03*
X95351600Y-44805600D03*
X40817800Y-57962800D03*
X46990000Y-3784600D03*
X47091600Y-9804400D03*
D31*
X6121400Y-14681200D02*
X6000000Y-14802600D01*
X6000000Y-14802600D02*
X6000000Y-19000000D01*
X6121400Y-13157200D02*
X6121400Y-14681200D01*
X6000000Y-14497800D02*
X6000000Y-14802600D01*
X6045200Y-13081000D02*
X6121400Y-13157200D01*
X6045200Y-9601200D02*
X6045200Y-13081000D01*
X59558000Y-42062400D02*
X60045600Y-41574800D01*
X57658000Y-42062400D02*
X59558000Y-42062400D01*
X60045600Y-41574800D02*
X60045600Y-37490400D01*
X60045600Y-37490400D02*
X59613800Y-37058600D01*
X59613800Y-37058600D02*
X53797200Y-37058600D01*
X53543200Y-36804600D02*
X53543200Y-32689800D01*
X53543200Y-32689800D02*
X54279800Y-31953200D01*
X54279800Y-31953200D02*
X58521600Y-31953200D01*
X18008600Y-41486387D02*
X18389600Y-41105387D01*
X18008600Y-42900600D02*
X18008600Y-41486387D01*
X18389600Y-41105387D02*
X18389600Y-41071800D01*
X18389600Y-41071800D02*
X18897600Y-40563800D01*
X28676600Y-40563800D02*
X30988000Y-42875200D01*
X24536400Y-40868600D02*
X24231600Y-40563800D01*
X24536400Y-42849800D02*
X24536400Y-40868600D01*
X24231600Y-40563800D02*
X28676600Y-40563800D01*
X33909000Y-39954200D02*
X30988000Y-42875200D01*
X33909000Y-32435800D02*
X33909000Y-37312600D01*
X31038800Y-29565600D02*
X33909000Y-32435800D01*
X33909000Y-37312600D02*
X33909000Y-37871400D01*
X33909000Y-37871400D02*
X33909000Y-39954200D01*
X45593000Y-43434000D02*
X45720000Y-43561000D01*
X45593000Y-39377000D02*
X45593000Y-43434000D01*
X44659970Y-37312600D02*
X33909000Y-37312600D01*
X45593000Y-39377000D02*
X45593000Y-38245630D01*
X20599400Y-38557200D02*
X20599400Y-40386000D01*
X20777200Y-40563800D02*
X24231600Y-40563800D01*
X20599400Y-40386000D02*
X20777200Y-40563800D01*
X18897600Y-40563800D02*
X20777200Y-40563800D01*
X13462000Y-31851600D02*
X13462000Y-19320800D01*
X53797200Y-37058600D02*
X53543200Y-36804600D01*
X45542200Y-36753800D02*
X44974085Y-37321915D01*
X44974085Y-37321915D02*
X44974085Y-37626715D01*
X44974085Y-37626715D02*
X44659970Y-37312600D01*
X45593000Y-38245630D02*
X44974085Y-37626715D01*
X58521600Y-31953200D02*
X60934600Y-29540200D01*
X80409400Y-14039200D02*
X77647800Y-11277600D01*
X80409400Y-20142200D02*
X80409400Y-14039200D01*
X60934600Y-21691600D02*
X80137000Y-21691600D01*
X60934600Y-29540200D02*
X60934600Y-21691600D01*
X80409400Y-21419200D02*
X80409400Y-20142200D01*
X80137000Y-21691600D02*
X80409400Y-21419200D01*
X77012800Y-11912600D02*
X77647800Y-11277600D01*
X77012800Y-13893800D02*
X77012800Y-11912600D01*
X13267400Y-14349400D02*
X14510400Y-13106400D01*
X13267400Y-18516600D02*
X13267400Y-14349400D01*
X12090400Y8966200D02*
X15036800Y8966200D01*
X12039600Y9017000D02*
X12090400Y8966200D01*
X12039600Y-101600D02*
X12580000Y-642000D01*
X12580000Y-642000D02*
X14510400Y-642000D01*
X12039600Y9017000D02*
X12039600Y-101600D01*
X14452600Y-13048600D02*
X14510400Y-13106400D01*
X14452600Y-10414000D02*
X14452600Y-13048600D01*
X14344000Y-13157200D02*
X14452600Y-13048600D01*
X13621400Y-13157200D02*
X14344000Y-13157200D01*
X12039600Y11353800D02*
X12039600Y9017000D01*
X11988800Y11353800D02*
X12039600Y11353800D01*
X9271000Y14071600D02*
X11988800Y11353800D01*
X3842900Y13545700D02*
X4368800Y14071600D01*
X3842900Y3157100D02*
X3842900Y13545700D01*
X6000000Y1000000D02*
X3842900Y3157100D01*
X7188200Y14071600D02*
X7188200Y16256000D01*
X4368800Y14071600D02*
X7188200Y14071600D01*
X7188200Y14071600D02*
X9271000Y14071600D01*
X7188200Y16256000D02*
X7518400Y16586200D01*
X7518400Y16586200D02*
X62788800Y16586200D01*
X62788800Y16586200D02*
X73380600Y5994400D01*
X73380600Y5994400D02*
X85953600Y5994400D01*
X86817200Y6858000D02*
X86817200Y9753600D01*
X85953600Y5994400D02*
X86817200Y6858000D01*
X86817200Y11953600D02*
X87970000Y13106400D01*
X86817200Y9753600D02*
X86817200Y11953600D01*
X87970000Y13106400D02*
X93649800Y13106400D01*
X94437200Y12319000D02*
X94437200Y9753600D01*
X93649800Y13106400D02*
X94437200Y12319000D01*
X13462000Y-31851600D02*
X13639800Y-31851600D01*
X13462000Y-31851600D02*
X13487400Y-31851600D01*
X13487400Y-31851600D02*
X13843000Y-32207200D01*
X20193000Y-32207200D02*
X20523200Y-32537400D01*
X13843000Y-32207200D02*
X20193000Y-32207200D01*
X20523200Y-32537400D02*
X20523200Y-34163000D01*
X20650200Y-27813000D02*
X18211800Y-27813000D01*
X20523200Y-32537400D02*
X20523200Y-32283400D01*
X20650200Y-32156400D02*
X20523200Y-32283400D01*
X20650200Y-27813000D02*
X20650200Y-32156400D01*
X89611200Y-26619200D02*
X89458800Y-26771600D01*
X89611200Y-20142200D02*
X89611200Y-26619200D01*
X89611200Y-20142200D02*
X87909400Y-20142200D01*
X89458800Y-26771600D02*
X89458800Y-29438600D01*
X90170000Y-30149800D02*
X90170000Y-33248600D01*
X89458800Y-29438600D02*
X90170000Y-30149800D01*
X47345600Y-62204600D02*
X49809400Y-59740800D01*
X52284830Y-54820200D02*
X52284830Y-54757770D01*
X52284830Y-54757770D02*
X53441600Y-53601000D01*
X49809400Y-57295630D02*
X52284830Y-54820200D01*
X49809400Y-59740800D02*
X49809400Y-57295630D01*
X54603000Y-54762400D02*
X53441600Y-53601000D01*
X57658000Y-54762400D02*
X54603000Y-54762400D01*
X46609802Y-25323800D02*
X41351200Y-25323800D01*
X41384787Y-23139400D02*
X41351200Y-23139400D01*
X41689587Y-22834600D02*
X41384787Y-23139400D01*
X43103800Y-22834600D02*
X41689587Y-22834600D01*
X41351200Y-23139400D02*
X41351200Y-25323800D01*
X59537600Y-12166600D02*
X59613800Y-12242800D01*
X56337200Y-12166600D02*
X59537600Y-12166600D01*
X50038000Y-23805940D02*
X50038000Y-10414000D01*
X50038000Y-10414000D02*
X50571400Y-9880600D01*
X50571400Y-9880600D02*
X55245000Y-9880600D01*
X55245000Y-11074400D02*
X56337200Y-12166600D01*
X55245000Y-9880600D02*
X55245000Y-11074400D01*
X48615600Y-25273000D02*
X50444400Y-25273000D01*
X48564800Y-25323800D02*
X48615600Y-25273000D01*
X50444400Y-24212340D02*
X50444400Y-25273000D01*
X50038000Y-23805940D02*
X50444400Y-24212340D01*
X41351200Y-25323800D02*
X45313600Y-25323800D01*
X45313600Y-27609800D02*
X45288200Y-27635200D01*
X45313600Y-25323800D02*
X45313600Y-27609800D01*
X45313600Y-25323800D02*
X48564800Y-25323800D01*
X47472600Y-50215800D02*
X45339000Y-50215800D01*
X47523400Y-50165000D02*
X47472600Y-50215800D01*
X47523400Y-47599600D02*
X47523400Y-50165000D01*
X47548800Y-47574200D02*
X47523400Y-47599600D01*
X45339000Y-50215800D02*
X44881800Y-50673000D01*
X47548800Y-35009387D02*
X47548800Y-47574200D01*
X44881800Y-50673000D02*
X44881800Y-55143400D01*
X46753213Y-34213800D02*
X47548800Y-35009387D01*
X45339000Y-34213800D02*
X46753213Y-34213800D01*
X34295000Y-22834600D02*
X43103800Y-22834600D01*
X31978600Y-20518200D02*
X34295000Y-22834600D01*
X31978600Y-18618200D02*
X31978600Y-20518200D01*
X47657170Y-55143400D02*
X49809400Y-57295630D01*
X44881800Y-55143400D02*
X47657170Y-55143400D01*
X56032400Y-49682400D02*
X57658000Y-49682400D01*
X51262900Y-50787300D02*
X49809400Y-52240800D01*
X54927500Y-50787300D02*
X51262900Y-50787300D01*
X54927500Y-50787300D02*
X56032400Y-49682400D01*
X48253000Y-52240800D02*
X45916200Y-52240800D01*
X49809400Y-52240800D02*
X48253000Y-52240800D01*
X49809400Y-51109430D02*
X49809400Y-52240800D01*
X49098200Y-50398230D02*
X49809400Y-51109430D01*
X36220400Y-35915600D02*
X43129200Y-35915600D01*
X36093400Y-27787600D02*
X36093400Y-35788600D01*
X35737800Y-27432000D02*
X36093400Y-27787600D01*
X43129200Y-32664400D02*
X43408600Y-32385000D01*
X29159200Y-27432000D02*
X35737800Y-27432000D01*
X43129200Y-35915600D02*
X43129200Y-32664400D01*
X28318500Y-29766300D02*
X28318500Y-28272700D01*
X36093400Y-35788600D02*
X36220400Y-35915600D01*
X28318500Y-28272700D02*
X29159200Y-27432000D01*
X27731800Y-30353000D02*
X28318500Y-29766300D01*
X25831800Y-30353000D02*
X27731800Y-30353000D01*
X47244000Y-32435800D02*
X49098200Y-34290000D01*
X47244000Y-32385000D02*
X47244000Y-32435800D01*
X49098200Y-34290000D02*
X49098200Y-50398230D01*
X43408600Y-32385000D02*
X47244000Y-32385000D01*
X28721000Y-25323800D02*
X31191200Y-25323800D01*
X26231800Y-27813000D02*
X28721000Y-25323800D01*
X25831800Y-27813000D02*
X26231800Y-27813000D01*
X56025400Y-19177000D02*
X56025400Y-26219800D01*
X56025400Y-26219800D02*
X53924200Y-28321000D01*
X49729866Y-28321000D02*
X48485266Y-29565600D01*
X53924200Y-28321000D02*
X49729866Y-28321000D01*
X48485266Y-29565600D02*
X44221400Y-29565600D01*
X44221400Y-29565600D02*
X42189400Y-27533600D01*
X42189400Y-27533600D02*
X39344600Y-27533600D01*
X37134800Y-25323800D02*
X31191200Y-25323800D01*
X39344600Y-27533600D02*
X37134800Y-25323800D01*
X71882000Y-19177000D02*
X72186800Y-19481800D01*
X63525400Y-19177000D02*
X71882000Y-19177000D01*
X63525400Y-9982200D02*
X63525400Y-19177000D01*
X57785000Y-8737600D02*
X62280800Y-8737600D01*
X28422600Y-17119600D02*
X29260800Y-16281400D01*
X48793400Y-20751800D02*
X48793400Y-9321800D01*
X48209200Y-21336000D02*
X48793400Y-20751800D01*
X39624000Y-16281400D02*
X44678600Y-21336000D01*
X49250600Y-8864600D02*
X57658000Y-8864600D01*
X44678600Y-21336000D02*
X48209200Y-21336000D01*
X62280800Y-8737600D02*
X63525400Y-9982200D01*
X29260800Y-16281400D02*
X39624000Y-16281400D01*
X26231800Y-25273000D02*
X28422600Y-23082200D01*
X28422600Y-23082200D02*
X28422600Y-17119600D01*
X48793400Y-9321800D02*
X49250600Y-8864600D01*
X57658000Y-8864600D02*
X57785000Y-8737600D01*
X25831800Y-25273000D02*
X26231800Y-25273000D01*
X53390800Y-22961600D02*
X53245400Y-23107000D01*
X53245400Y-19456400D02*
X53245400Y-23107000D01*
X53263800Y-18128600D02*
X53067600Y-17932400D01*
X53263800Y-22834600D02*
X53263800Y-18128600D01*
X52476400Y-17341200D02*
X53067600Y-17932400D01*
X52476400Y-14935200D02*
X52476400Y-17341200D01*
X52197000Y-27076400D02*
X53340000Y-25933400D01*
X53263800Y-25857200D02*
X53263800Y-22834600D01*
X53340000Y-25933400D02*
X53263800Y-25857200D01*
X48654399Y-27063001D02*
X47904400Y-27813000D01*
X50151601Y-27063001D02*
X48654399Y-27063001D01*
X50165000Y-27076400D02*
X50151601Y-27063001D01*
X50165000Y-27076400D02*
X52197000Y-27076400D01*
X42824400Y-16256000D02*
X45415200Y-16256000D01*
X40843200Y-14274800D02*
X42824400Y-16256000D01*
X40182800Y-14274800D02*
X40843200Y-14274800D01*
X45567600Y-16408400D02*
X45415200Y-16256000D01*
X45567600Y-17932400D02*
X45567600Y-16408400D01*
X42688001Y-16119601D02*
X42824400Y-16256000D01*
X42688001Y-15935199D02*
X42688001Y-16119601D01*
X42316400Y-15563598D02*
X42688001Y-15935199D01*
X42316400Y-14935200D02*
X42316400Y-15563598D01*
X51714400Y-39522400D02*
X51522800Y-39330800D01*
X51968400Y-46101000D02*
X53441600Y-46101000D01*
X51522800Y-45655400D02*
X51968400Y-46101000D01*
X51522800Y-39330800D02*
X51522800Y-45655400D01*
X57658000Y-39522400D02*
X51714400Y-39522400D01*
X51522800Y-34176800D02*
X51522800Y-39330800D01*
X51522800Y-31177400D02*
X51522800Y-34176800D01*
X50444400Y-30353000D02*
X50698400Y-30353000D01*
X51894400Y-30353000D02*
X50444400Y-30353000D01*
X52453200Y-29794200D02*
X51894400Y-30353000D01*
X58674000Y-17602200D02*
X58674000Y-27432000D01*
X51917600Y-11963400D02*
X53035200Y-11963400D01*
X56311800Y-29794200D02*
X52453200Y-29794200D01*
X53035200Y-11963400D02*
X58674000Y-17602200D01*
X58674000Y-27432000D02*
X56311800Y-29794200D01*
X51892200Y-30353000D02*
X51295300Y-30949900D01*
X51295300Y-30949900D02*
X51522800Y-31177400D01*
X51894400Y-30353000D02*
X51892200Y-30353000D01*
X50698400Y-30353000D02*
X51295300Y-30949900D01*
X70637400Y-2844800D02*
X70637400Y1727200D01*
X68757800Y3606800D02*
X60375800Y3606800D01*
X70637400Y1727200D02*
X68757800Y3606800D01*
X60528200Y3759200D02*
X60375800Y3606800D01*
X60528200Y7315200D02*
X60528200Y3759200D01*
X47345600Y3606800D02*
X47320200Y3581400D01*
X52875800Y3606800D02*
X47345600Y3606800D01*
X32562800Y-14274800D02*
X25273000Y-14274800D01*
X24536400Y-13538200D02*
X24536400Y-9956800D01*
X25273000Y-14274800D02*
X24536400Y-13538200D01*
X38760400Y-46101000D02*
X45720000Y-46101000D01*
X37465000Y-47396400D02*
X38760400Y-46101000D01*
X37465000Y-53009800D02*
X37465000Y-47396400D01*
X43789600Y-63373000D02*
X43789600Y-49098200D01*
X44246800Y-48641000D02*
X45720000Y-48641000D01*
X43789600Y-49098200D02*
X44246800Y-48641000D01*
X53162200Y-64084200D02*
X53340000Y-63906400D01*
X44500800Y-64084200D02*
X53162200Y-64084200D01*
X56540400Y-60706000D02*
X53340000Y-63906400D01*
X44500800Y-64084200D02*
X43789600Y-63373000D01*
X3949999Y-29679601D02*
X4629600Y-29000000D01*
X7035800Y-68986400D02*
X3949999Y-65900599D01*
X3949999Y-65900599D02*
X3949999Y-29679601D01*
X4629600Y-29000000D02*
X6000000Y-29000000D01*
X95199200Y-68986400D02*
X7035800Y-68986400D01*
X100330000Y-33248600D02*
X100330000Y-63855600D01*
X100330000Y-63855600D02*
X99822000Y-64363600D01*
X99822000Y-64363600D02*
X95199200Y-68986400D01*
X38811200Y-7340600D02*
X27228800Y-7340600D01*
X27076400Y-7493000D02*
X27076400Y-9956800D01*
X27228800Y-7340600D02*
X27076400Y-7493000D01*
X41859200Y-10083800D02*
X41859200Y-8183800D01*
X70662800Y-8539400D02*
X70662800Y-7772400D01*
X70637400Y-8564800D02*
X70662800Y-8539400D01*
X70637400Y-10464800D02*
X70637400Y-8564800D01*
X86918800Y-7929800D02*
X86918800Y-7772400D01*
X87426800Y-8437800D02*
X86918800Y-7929800D01*
X87426800Y-10337800D02*
X87426800Y-8437800D01*
X38811200Y-7340600D02*
X41808400Y-7340600D01*
X41859200Y-7391400D02*
X41859200Y-10083800D01*
X41808400Y-7340600D02*
X41859200Y-7391400D01*
X70231000Y-7340600D02*
X70662800Y-7772400D01*
X41808400Y-7340600D02*
X70231000Y-7340600D01*
X87426800Y-8437800D02*
X87426800Y-7442200D01*
X87426800Y-7442200D02*
X87325200Y-7340600D01*
X70231000Y-7340600D02*
X87325200Y-7340600D01*
X25831800Y-21233000D02*
X25831800Y-22733000D01*
X21540600Y-16941800D02*
X25831800Y-21233000D01*
X21386800Y-16941800D02*
X21540600Y-16941800D01*
X20116800Y-15671800D02*
X21386800Y-16941800D01*
X20116800Y-7391400D02*
X20116800Y-15671800D01*
X20066000Y-7340600D02*
X20116800Y-7391400D01*
X27228800Y-7340600D02*
X20066000Y-7340600D01*
X96977200Y9753600D02*
X96977200Y6426200D01*
X98526600Y-7747000D02*
X98526600Y-9779000D01*
X98221800Y-7442200D02*
X98526600Y-7747000D01*
X87426800Y-7442200D02*
X98221800Y-7442200D01*
X99009200Y4292600D02*
X99009200Y-3302000D01*
X99060000Y4343400D02*
X99009200Y4292600D01*
X96977200Y6426200D02*
X99060000Y4343400D01*
X97358200Y-50190400D02*
X96601200Y-50947400D01*
X97358200Y-37922200D02*
X97358200Y-50190400D01*
X95046800Y-35610800D02*
X97358200Y-37922200D01*
X95046800Y-29921200D02*
X95046800Y-35610800D01*
X90271600Y-50693400D02*
X90271600Y-48793400D01*
X97320100Y-27647900D02*
X95046800Y-29921200D01*
X98415601Y-10778999D02*
X98415601Y-26603199D01*
X97370900Y-27647900D02*
X97320100Y-27647900D01*
X90525600Y-50947400D02*
X90271600Y-50693400D01*
X96601200Y-50947400D02*
X90525600Y-50947400D01*
X98415601Y-26603199D02*
X97370900Y-27647900D01*
X21996400Y-4236800D02*
X22021800Y-4262200D01*
X21996400Y-2336800D02*
X21996400Y-4236800D01*
X21996400Y-2336800D02*
X21996400Y-1936800D01*
X91897200Y6019800D02*
X95224600Y6019800D01*
X91897200Y6019800D02*
X91897200Y9753600D01*
X97218500Y-5778500D02*
X96901000Y-6096000D01*
X97218500Y4025900D02*
X97218500Y-5778500D01*
X95224600Y6019800D02*
X97218500Y4025900D01*
X96901000Y-6096000D02*
X82931000Y-6096000D01*
X97409000Y-6096000D02*
X96901000Y-6096000D01*
X18821400Y-6705600D02*
X19431000Y-6096000D01*
X15189200Y-21031200D02*
X18821400Y-17399000D01*
X18821400Y-17399000D02*
X18821400Y-6705600D01*
X18211800Y-30353000D02*
X16154400Y-30353000D01*
X16154400Y-30353000D02*
X15189200Y-29387800D01*
X15189200Y-29387800D02*
X15189200Y-21031200D01*
X21996400Y-5816600D02*
X22275800Y-6096000D01*
X21996400Y-4236800D02*
X21996400Y-5816600D01*
X19431000Y-6096000D02*
X22275800Y-6096000D01*
X36779200Y-4363800D02*
X36957000Y-4541600D01*
X36779200Y-2463800D02*
X36779200Y-4363800D01*
X36957000Y-4541600D02*
X36957000Y-6096000D01*
X22275800Y-6096000D02*
X36957000Y-6096000D01*
X65557400Y-5816600D02*
X65278000Y-6096000D01*
X65557400Y-2844800D02*
X65557400Y-5816600D01*
X36957000Y-6096000D02*
X65278000Y-6096000D01*
X82346800Y-5867400D02*
X82118200Y-6096000D01*
X82346800Y-2717800D02*
X82346800Y-5867400D01*
X82118200Y-6096000D02*
X97409000Y-6096000D01*
X65278000Y-6096000D02*
X82118200Y-6096000D01*
X97409000Y-29641800D02*
X96240600Y-30810200D01*
X97434400Y-29641800D02*
X97409000Y-29641800D01*
X97586800Y-56413400D02*
X95351600Y-56413400D01*
X98323400Y-36982400D02*
X98323400Y-55676800D01*
X99364800Y-27711400D02*
X97434400Y-29641800D01*
X96240600Y-34899600D02*
X98323400Y-36982400D01*
X99364800Y-11234802D02*
X99364800Y-27711400D01*
X97409000Y-6096000D02*
X99494606Y-6096000D01*
X96240600Y-30810200D02*
X96240600Y-34899600D01*
X98323400Y-55676800D02*
X97586800Y-56413400D01*
X99494606Y-6096000D02*
X99660901Y-6262295D01*
X99660901Y-6262295D02*
X99660901Y-10938701D01*
X99660901Y-10938701D02*
X99364800Y-11234802D01*
X11379200Y-57353202D02*
X11709400Y-57683402D01*
X11379200Y-57328400D02*
X11379200Y-57353202D01*
X94538800Y-11328400D02*
X94538800Y-12742613D01*
X10617200Y-56591202D02*
X10617200Y-51968400D01*
X11709400Y-57683402D02*
X10617200Y-56591202D01*
X7493000Y-51968400D02*
X6934200Y-52527200D01*
X10617200Y-51968400D02*
X7493000Y-51968400D01*
X66700400Y-60706000D02*
X66700400Y-62120213D01*
X70358000Y-62966600D02*
X67546786Y-62966600D01*
X67546786Y-62966600D02*
X66933093Y-62352907D01*
X66933093Y-62352907D02*
X67259200Y-62679013D01*
X66700400Y-62120213D02*
X66933093Y-62352907D01*
X11709400Y-57683402D02*
X11709400Y-62103000D01*
X11836400Y-62230000D02*
X15443200Y-62230000D01*
X11709400Y-62103000D02*
X11836400Y-62230000D01*
X89357200Y4902200D02*
X89357200Y9753600D01*
X94538800Y-10947400D02*
X93116400Y-9525000D01*
X94538800Y-11328400D02*
X94538800Y-10947400D01*
X93116400Y-2438400D02*
X93116400Y4419600D01*
X93002100Y4533900D02*
X89725500Y4533900D01*
X93116400Y4419600D02*
X93002100Y4533900D01*
X89725500Y4533900D02*
X89357200Y4902200D01*
X70358000Y-66090800D02*
X70358000Y-62966600D01*
X68707000Y-67741800D02*
X70358000Y-66090800D01*
X16840200Y-67741800D02*
X15392400Y-66294000D01*
X17195800Y-67741800D02*
X16840200Y-67741800D01*
X17195800Y-67741800D02*
X68707000Y-67741800D01*
X97028000Y-15798800D02*
X97028000Y-17627600D01*
X95988800Y-26771600D02*
X94538800Y-26771600D01*
X97028000Y-25732400D02*
X95988800Y-26771600D01*
X97028000Y-17627600D02*
X97028000Y-25732400D01*
X96545400Y-15316200D02*
X97028000Y-15798800D01*
X94229907Y-13051507D02*
X94280707Y-13051507D01*
X94538800Y-12742613D02*
X94229907Y-13051507D01*
X94280707Y-13051507D02*
X96545400Y-15316200D01*
X70358000Y-58953400D02*
X70358000Y-62966600D01*
X75920600Y-53390800D02*
X70358000Y-58953400D01*
X82829400Y-53365400D02*
X82829400Y-53390800D01*
X83362800Y-52832000D02*
X82829400Y-53365400D01*
X82829400Y-53390800D02*
X75920600Y-53390800D01*
X83362800Y-42087800D02*
X83362800Y-52832000D01*
X83464400Y-17500600D02*
X83464400Y-17526000D01*
X83032600Y-19380200D02*
X83007200Y-19405600D01*
X86741000Y-31165800D02*
X86741000Y-38709600D01*
X83007200Y-19405600D02*
X83007200Y-27432000D01*
X86741000Y-38709600D02*
X83362800Y-42087800D01*
X83032600Y-17957800D02*
X83032600Y-19380200D01*
X87198200Y-13766800D02*
X83464400Y-17500600D01*
X83464400Y-17526000D02*
X83032600Y-17957800D01*
X83007200Y-27432000D02*
X86741000Y-31165800D01*
X93514613Y-13766800D02*
X87198200Y-13766800D01*
X94229907Y-13051507D02*
X93514613Y-13766800D01*
X85496400Y-37964813D02*
X85496400Y-33705800D01*
X84548413Y-38912800D02*
X85496400Y-37964813D01*
X83134200Y-38912800D02*
X84548413Y-38912800D01*
X81661000Y-38989000D02*
X81661000Y-43002200D01*
X81584800Y-38912800D02*
X81661000Y-38989000D01*
X80162400Y-38912800D02*
X81584800Y-38912800D01*
X81584800Y-38912800D02*
X83134200Y-38912800D01*
X81051400Y-29260800D02*
X85496400Y-33705800D01*
X74930000Y-28397200D02*
X80187800Y-28397200D01*
X73837800Y-27305000D02*
X74930000Y-28397200D01*
X68681600Y-27305000D02*
X73837800Y-27305000D01*
X80187800Y-28397200D02*
X81051400Y-29260800D01*
X68275200Y-27711400D02*
X68681600Y-27305000D01*
X68275200Y-36601400D02*
X68275200Y-27711400D01*
X67777400Y-37099200D02*
X68275200Y-36601400D01*
X67777400Y-41463000D02*
X67777400Y-37099200D01*
X67178000Y-42062400D02*
X67777400Y-41463000D01*
X65278000Y-42062400D02*
X67178000Y-42062400D01*
X81661000Y-50876200D02*
X81610200Y-50927000D01*
X81661000Y-43002200D02*
X81661000Y-50876200D01*
X84277200Y9753600D02*
X84277200Y13309600D01*
X81610200Y-56938613D02*
X81610200Y-55524400D01*
X99339400Y-58369200D02*
X98831400Y-58877200D01*
X83548787Y-58877200D02*
X81610200Y-56938613D01*
X98577400Y-35560000D02*
X99339400Y-36322000D01*
X98552000Y-35560000D02*
X98577400Y-35560000D01*
X99745800Y14579600D02*
X100560910Y13764490D01*
X97561400Y-31978600D02*
X97561400Y-34569400D01*
X98831400Y-58877200D02*
X83548787Y-58877200D01*
X100560910Y-28979090D02*
X97561400Y-31978600D01*
X100560910Y13764490D02*
X100560910Y-28979090D01*
X99339400Y-36322000D02*
X99339400Y-58369200D01*
X97561400Y-34569400D02*
X98552000Y-35560000D01*
X84810600Y14579600D02*
X99745800Y14579600D01*
X84277200Y14046200D02*
X84810600Y14579600D01*
X84277200Y13309600D02*
X84277200Y14046200D01*
X81737200Y13233400D02*
X81737200Y9753600D01*
X77292200Y17678400D02*
X81737200Y13233400D01*
X4368800Y17678400D02*
X77292200Y17678400D01*
X2641600Y15951200D02*
X4368800Y17678400D01*
X2641600Y-1295400D02*
X2641600Y15951200D01*
X8178800Y-6832600D02*
X2641600Y-1295400D01*
X8178800Y-30979998D02*
X8178800Y-6832600D01*
X5815999Y-37057999D02*
X5815999Y-33342799D01*
X5815999Y-33342799D02*
X8178800Y-30979998D01*
X6959600Y-38201600D02*
X5815999Y-37057999D01*
X40817800Y-64008000D02*
X40868600Y-64058800D01*
X40817800Y-57962800D02*
X40817800Y-64008000D01*
X40817800Y-53060600D02*
X40817800Y-57962800D01*
X92887800Y-47269400D02*
X95351600Y-44805600D01*
X92811600Y-47269400D02*
X92887800Y-47269400D01*
X92811600Y-48793400D02*
X92811600Y-47269400D01*
X93853000Y-28803600D02*
X93853000Y-36423600D01*
X93853000Y-36423600D02*
X95351600Y-37922200D01*
X92024200Y-26974800D02*
X93853000Y-28803600D01*
X95351600Y-37922200D02*
X95351600Y-44805600D01*
X92024200Y-19126200D02*
X92024200Y-26974800D01*
X91948000Y-19050000D02*
X92024200Y-19126200D01*
X91948000Y-17627600D02*
X91948000Y-19050000D01*
X38328600Y-58953400D02*
X37795200Y-58420000D01*
X38328600Y-64058800D02*
X38328600Y-58953400D01*
X37795200Y-58420000D02*
X35255200Y-58420000D01*
X35255200Y-57302400D02*
X30988000Y-53035200D01*
X35255200Y-58420000D02*
X35255200Y-57302400D01*
X30988000Y-53035200D02*
X30988000Y-46786800D01*
X11550006Y-44348400D02*
X10617200Y-44348400D01*
X13988406Y-46786800D02*
X11550006Y-44348400D01*
X30988000Y-46786800D02*
X13988406Y-46786800D01*
X28625800Y-58343800D02*
X26085800Y-58343800D01*
X26085800Y-55973413D02*
X26085800Y-56896000D01*
X24536400Y-54424013D02*
X26085800Y-55973413D01*
X24536400Y-53009800D02*
X24536400Y-54424013D01*
X26085800Y-58343800D02*
X26085800Y-56896000D01*
X34051600Y-60121800D02*
X35788600Y-61858800D01*
X28930600Y-60121800D02*
X34051600Y-60121800D01*
X28625800Y-59817000D02*
X28930600Y-60121800D01*
X35788600Y-61858800D02*
X35788600Y-64058800D01*
X28625800Y-58343800D02*
X28625800Y-59817000D01*
X24536400Y-48514000D02*
X13614400Y-48514000D01*
X24536400Y-53009800D02*
X24536400Y-48514000D01*
X12817200Y-47716800D02*
X13614400Y-48514000D01*
X12741000Y-47716800D02*
X11912600Y-46888400D01*
X12817200Y-47716800D02*
X12741000Y-47716800D01*
X11912600Y-46888400D02*
X10617200Y-46888400D01*
X33248600Y-61858800D02*
X33010200Y-61620400D01*
X33248600Y-64058800D02*
X33248600Y-61858800D01*
X33010200Y-61620400D02*
X20167600Y-61620400D01*
X19354800Y-60807600D02*
X19354800Y-58369200D01*
X20167600Y-61620400D02*
X19354800Y-60807600D01*
X18008600Y-58166000D02*
X17805400Y-58369200D01*
X18008600Y-53060600D02*
X18008600Y-58166000D01*
X17805400Y-58369200D02*
X16814800Y-58369200D01*
X19354800Y-58369200D02*
X17805400Y-58369200D01*
X18008600Y-50469800D02*
X18008600Y-53060600D01*
X18008600Y-50469800D02*
X13843000Y-50469800D01*
X12817200Y-49428400D02*
X10617200Y-49428400D01*
X13843000Y-50454200D02*
X12817200Y-49428400D01*
X13843000Y-50469800D02*
X13843000Y-50454200D01*
X11517399Y-8167601D02*
X17576800Y-2108200D01*
X11517399Y-40108199D02*
X11517399Y-8167601D01*
X5054600Y-46570998D02*
X11517399Y-40108199D01*
X17576800Y-2108200D02*
X17576800Y3886200D01*
X28675399Y-64542001D02*
X5537801Y-64542001D01*
X29158600Y-64058800D02*
X28675399Y-64542001D01*
X5537801Y-64542001D02*
X5054600Y-64058800D01*
X30708600Y-64058800D02*
X29158600Y-64058800D01*
X5054600Y-64058800D02*
X5054600Y-46570998D01*
X78316387Y-34163000D02*
X79730600Y-34163000D01*
X68681600Y-57988200D02*
X76647801Y-50021999D01*
X65125600Y-57988200D02*
X68681600Y-57988200D01*
X78290987Y-34137600D02*
X78316387Y-34163000D01*
X63779400Y-59334400D02*
X65125600Y-57988200D01*
X77647800Y-34137600D02*
X78290987Y-34137600D01*
X31496000Y-66522600D02*
X61163200Y-66522600D01*
X76647801Y-35137599D02*
X77647800Y-34137600D01*
X63779400Y-63906400D02*
X63779400Y-59334400D01*
X30708600Y-64058800D02*
X30708600Y-65735200D01*
X61163200Y-66522600D02*
X63779400Y-63906400D01*
X76647801Y-50021999D02*
X76647801Y-35137599D01*
X30708600Y-65735200D02*
X31496000Y-66522600D01*
X62915800Y12065000D02*
X67437000Y7543800D01*
X60502800Y12065000D02*
X62915800Y12065000D01*
X92075000Y-42240200D02*
X93294200Y-41021000D01*
X93294200Y-41021000D02*
X93294200Y-38912800D01*
X87020400Y-43688000D02*
X88468200Y-42240200D01*
X85902800Y-44831000D02*
X87020400Y-43713400D01*
X87020400Y-43713400D02*
X87020400Y-43688000D01*
X85902800Y-52095400D02*
X85902800Y-44831000D01*
X92278200Y-52705000D02*
X86512400Y-52705000D01*
X86512400Y-52705000D02*
X85902800Y-52095400D01*
X88468200Y-42240200D02*
X92075000Y-42240200D01*
X92811600Y-53238400D02*
X92278200Y-52705000D01*
X92811600Y-56413400D02*
X92811600Y-53238400D01*
X91998800Y-37617400D02*
X93294200Y-38912800D01*
X91998800Y-29311600D02*
X91998800Y-37617400D01*
X90271600Y-54127400D02*
X90271600Y-56413400D01*
X90093800Y-53949600D02*
X90271600Y-54127400D01*
X86080600Y-53949600D02*
X90093800Y-53949600D01*
X84810600Y-52679600D02*
X86080600Y-53949600D01*
X84810600Y-43891200D02*
X84810600Y-52679600D01*
X85153500Y-43548300D02*
X84810600Y-43891200D01*
X87833200Y-40919400D02*
X85204300Y-43548300D01*
X85204300Y-43548300D02*
X85153500Y-43548300D01*
X85496400Y-27736800D02*
X87833200Y-30073600D01*
X94488000Y-15773400D02*
X94056200Y-15341600D01*
X94056200Y-15341600D02*
X88925400Y-15341600D01*
X87833200Y-30073600D02*
X87833200Y-40919400D01*
X88925400Y-15341600D02*
X85496400Y-18770600D01*
X85496400Y-18770600D02*
X85496400Y-27736800D01*
X94488000Y-20167600D02*
X94488000Y-15773400D01*
X34213800Y-45313600D02*
X34213800Y-42849800D01*
X33934400Y-45593000D02*
X34213800Y-45313600D01*
X21285200Y-45542200D02*
X21336000Y-45593000D01*
X21285200Y-42900600D02*
X21285200Y-45542200D01*
X28041600Y-44543413D02*
X28041600Y-45593000D01*
X27787600Y-44289413D02*
X28041600Y-44543413D01*
X27787600Y-42875200D02*
X27787600Y-44289413D01*
X28041600Y-45593000D02*
X33934400Y-45593000D01*
X21336000Y-45593000D02*
X28041600Y-45593000D01*
X34213800Y-42849800D02*
X37465000Y-42849800D01*
X40767000Y-42849800D02*
X40817800Y-42900600D01*
X37465000Y-42849800D02*
X40767000Y-42849800D01*
X40817800Y-39624000D02*
X40944800Y-39497000D01*
X40817800Y-42900600D02*
X40817800Y-39624000D01*
X14757400Y-42900600D02*
X14757400Y-44314813D01*
X14757400Y-44314813D02*
X14935200Y-44492613D01*
X14935200Y-44492613D02*
X14935200Y-45593000D01*
X14935200Y-45593000D02*
X21336000Y-45593000D01*
X20116800Y-36398200D02*
X20066000Y-36347400D01*
X22402800Y-36398200D02*
X20116800Y-36398200D01*
X22402800Y-25273000D02*
X22402800Y-36398200D01*
X18211800Y-25273000D02*
X22402800Y-25273000D01*
X17500600Y-38836600D02*
X17094200Y-39243000D01*
X17500600Y-36169600D02*
X17500600Y-38836600D01*
X17094200Y-40563800D02*
X14757400Y-42900600D01*
X17094200Y-39243000D02*
X17094200Y-40563800D01*
X19888200Y-36169600D02*
X17500600Y-36169600D01*
X20116800Y-36398200D02*
X19888200Y-36169600D01*
X17500600Y-35526413D02*
X17500600Y-36169600D01*
X17526000Y-35501013D02*
X17500600Y-35526413D01*
X17526000Y-34086800D02*
X17526000Y-35501013D01*
X6000000Y11000000D02*
X9777200Y11000000D01*
X9095000Y11000000D02*
X6000000Y11000000D01*
X9169400Y-40132000D02*
X6934200Y-42367200D01*
X10310600Y-38990800D02*
X9169400Y-40132000D01*
X10310600Y10542800D02*
X10310600Y-38990800D01*
X9853400Y11000000D02*
X10310600Y10542800D01*
X9095000Y11000000D02*
X9853400Y11000000D01*
X9200400Y6000000D02*
X9200400Y-33624000D01*
X9200400Y-33624000D02*
X8737600Y-34086800D01*
X7366000Y-34086800D02*
X8737600Y-34086800D01*
X9200400Y6000000D02*
X6000000Y6000000D01*
X32715200Y-57962800D02*
X32715200Y-58420000D01*
X27787600Y-53035200D02*
X32715200Y-57962800D01*
X21285200Y-56083200D02*
X23545800Y-58343800D01*
X21285200Y-53060600D02*
X21285200Y-56083200D01*
X14757400Y-53060600D02*
X14757400Y-58521600D01*
X14605000Y-58369200D02*
X14274800Y-58369200D01*
X14757400Y-58521600D02*
X14605000Y-58369200D01*
X68402200Y-54762400D02*
X70358000Y-52806600D01*
X65278000Y-54762400D02*
X68402200Y-54762400D01*
X30683200Y-39395400D02*
X30784800Y-39497000D01*
X30657800Y-35272413D02*
X30683200Y-35297813D01*
X30657800Y-33858200D02*
X30657800Y-35272413D01*
X24079200Y-36525200D02*
X30683200Y-36525200D01*
X30683200Y-36525200D02*
X30683200Y-39395400D01*
X30683200Y-35297813D02*
X30683200Y-36525200D01*
X18211800Y-22733000D02*
X23418800Y-22733000D01*
X23736300Y-23050500D02*
X23736300Y-36182300D01*
X23418800Y-22733000D02*
X23736300Y-23050500D01*
X23736300Y-36182300D02*
X24079200Y-36525200D01*
X78647799Y-117601D02*
X84242401Y-117601D01*
X77647800Y-1117600D02*
X78647799Y-117601D01*
X84886800Y-762000D02*
X84886800Y-2717800D01*
X84242401Y-117601D02*
X84886800Y-762000D01*
X95427800Y-4851400D02*
X95427800Y-1117600D01*
X85171200Y-4902200D02*
X95377000Y-4902200D01*
X84886800Y-4617800D02*
X85171200Y-4902200D01*
X95377000Y-4902200D02*
X95427800Y-4851400D01*
X84886800Y-2717800D02*
X84886800Y-4617800D01*
X40817800Y-29946600D02*
X41198800Y-29565600D01*
X52123300Y-48211700D02*
X54688700Y-48211700D01*
X54688700Y-48211700D02*
X55758000Y-47142400D01*
X50317400Y-34925000D02*
X50317400Y-46405800D01*
X55758000Y-47142400D02*
X57658000Y-47142400D01*
X50317400Y-46405800D02*
X52123300Y-48211700D01*
X40817800Y-33858200D02*
X40817800Y-32156400D01*
X40817800Y-31267400D02*
X40817800Y-29946600D01*
X40817800Y-32156400D02*
X40817800Y-31267400D01*
X48107600Y-31267400D02*
X50317400Y-33477200D01*
X48056800Y-31267400D02*
X48107600Y-31267400D01*
X50317400Y-34925000D02*
X50317400Y-33477200D01*
X40817800Y-31267400D02*
X48056800Y-31267400D01*
X63296800Y-46863000D02*
X63576200Y-47142400D01*
X63296800Y-34493200D02*
X63296800Y-46863000D01*
X63576200Y-47142400D02*
X65278000Y-47142400D01*
X66395600Y-34493200D02*
X63296800Y-34493200D01*
X61341000Y-43891200D02*
X60629800Y-44602400D01*
X61341000Y-35306000D02*
X61341000Y-43891200D01*
X60528200Y-34493200D02*
X61341000Y-35306000D01*
X60629800Y-44602400D02*
X57658000Y-44602400D01*
X56235600Y-34493200D02*
X60528200Y-34493200D01*
X59613800Y-2082800D02*
X56946800Y584200D01*
X56946800Y584200D02*
X56946800Y9372600D01*
X56946800Y9372600D02*
X61950600Y9372600D01*
X61950600Y9372600D02*
X63652400Y7670800D01*
X63652400Y7670800D02*
X63652400Y6045200D01*
X63652400Y6045200D02*
X64603801Y5093799D01*
X69785401Y5093799D02*
X69785401Y4738199D01*
X64603801Y5093799D02*
X69785401Y5093799D01*
X73329800Y1193800D02*
X87426800Y1193800D01*
X69785401Y4738199D02*
X73329800Y1193800D01*
X87426800Y1193800D02*
X87426800Y-2717800D01*
X71501000Y-46558200D02*
X71450200Y-46609000D01*
X71501000Y-43002200D02*
X71501000Y-46558200D01*
X65278000Y-52222400D02*
X67513200Y-52222400D01*
X71450200Y-48285400D02*
X71450200Y-46609000D01*
X67513200Y-52222400D02*
X71450200Y-48285400D01*
X74091800Y-40411400D02*
X74091800Y-31546800D01*
X74091800Y-31546800D02*
X72186800Y-29641800D01*
X71501000Y-43002200D02*
X74091800Y-40411400D01*
X67178000Y-49682400D02*
X68732400Y-48128000D01*
X65278000Y-49682400D02*
X67178000Y-49682400D01*
X68732400Y-48128000D02*
X68732400Y-42799000D01*
X70002400Y-41529000D02*
X70002400Y-38912800D01*
X68732400Y-42799000D02*
X70002400Y-41529000D01*
X63068200Y-49682400D02*
X65278000Y-49682400D01*
X61442600Y-63322200D02*
X61442600Y-51308000D01*
X43509599Y-65328199D02*
X59436601Y-65328199D01*
X43053000Y-64871600D02*
X43509599Y-65328199D01*
X43053000Y-64795400D02*
X43053000Y-64871600D01*
X59436601Y-65328199D02*
X61442600Y-63322200D01*
X42722800Y-64465200D02*
X43053000Y-64795400D01*
X42722800Y-51282600D02*
X42722800Y-64465200D01*
X39547800Y-50723800D02*
X42164000Y-50723800D01*
X42164000Y-50723800D02*
X42722800Y-51282600D01*
X61442600Y-51308000D02*
X63068200Y-49682400D01*
X39141400Y-54838600D02*
X39141400Y-51130200D01*
X39141400Y-51130200D02*
X39547800Y-50723800D01*
X34213800Y-53009800D02*
X36677600Y-55473600D01*
X38506400Y-55473600D02*
X39141400Y-54838600D01*
X36677600Y-55473600D02*
X38506400Y-55473600D01*
X32867600Y14401800D02*
X32867600Y10896600D01*
X32867600Y7569200D02*
X32816800Y7518400D01*
X32867600Y10896600D02*
X32867600Y7569200D01*
X40284400Y9321800D02*
X38709600Y10896600D01*
X45008800Y711200D02*
X40284400Y5435600D01*
X54152800Y711200D02*
X45008800Y711200D01*
X38709600Y10896600D02*
X32867600Y10896600D01*
X63601600Y711200D02*
X63296800Y406400D01*
X55143400Y-3657600D02*
X55016400Y-3657600D01*
X63296800Y-3733800D02*
X63093600Y-3937000D01*
X63296800Y406400D02*
X63296800Y-3733800D01*
X40284400Y5435600D02*
X40284400Y9321800D01*
X55422800Y-3937000D02*
X55143400Y-3657600D01*
X67183000Y711200D02*
X63601600Y711200D01*
X55016400Y-152400D02*
X54152800Y711200D01*
X63093600Y-3937000D02*
X55422800Y-3937000D01*
X68097400Y-203200D02*
X67183000Y711200D01*
X68097400Y-2844800D02*
X68097400Y-203200D01*
X56337200Y-2006600D02*
X55143400Y-2006600D01*
X55143400Y-2006600D02*
X55016400Y-1879600D01*
X55016400Y-1879600D02*
X55016400Y-152400D01*
X55016400Y-3657600D02*
X55016400Y-1879600D01*
X68097400Y-10464800D02*
X68097400Y-12674600D01*
X67233800Y-13538200D02*
X68097400Y-12674600D01*
X67157600Y-13538200D02*
X67233800Y-13538200D01*
X76835000Y-23876000D02*
X77012800Y-24053800D01*
X79679800Y-24053800D02*
X79730600Y-24003000D01*
X77012800Y-24053800D02*
X79679800Y-24053800D01*
X76657200Y-23698200D02*
X77012800Y-24053800D01*
X67157600Y-23698200D02*
X76657200Y-23698200D01*
X19558000Y14046200D02*
X17576800Y14046200D01*
X22707600Y10896600D02*
X19558000Y14046200D01*
X39319200Y-563800D02*
X39578200Y-304800D01*
X39319200Y-2463800D02*
X39319200Y-563800D01*
X39578200Y-304800D02*
X49123600Y-304800D01*
X49123600Y-304800D02*
X49174400Y-355600D01*
X49174400Y-355600D02*
X50546000Y-355600D01*
X50546000Y-355600D02*
X50977800Y-787400D01*
X50977800Y-863600D02*
X51917600Y-1803400D01*
X50977800Y-787400D02*
X50977800Y-863600D01*
X13809319Y11539881D02*
X13809319Y11480800D01*
X13004800Y15367000D02*
X13004800Y12344400D01*
X13084001Y15446201D02*
X13004800Y15367000D01*
X13834719Y11506200D02*
X15036800Y11506200D01*
X13809319Y11480800D02*
X13834719Y11506200D01*
X21663199Y15446201D02*
X13084001Y15446201D01*
X13004800Y12344400D02*
X13809319Y11539881D01*
X22707600Y14401800D02*
X21663199Y15446201D01*
X37160200Y2692400D02*
X33350200Y-1117600D01*
X37160200Y3581400D02*
X37160200Y2692400D01*
X24536400Y-1936800D02*
X26803400Y330200D01*
X24536400Y-2336800D02*
X24536400Y-1936800D01*
X31902400Y330200D02*
X33350200Y-1117600D01*
X26803400Y330200D02*
X31902400Y330200D01*
X34350199Y-12277599D02*
X39030401Y-12277599D01*
X33350200Y-11277600D02*
X34350199Y-12277599D01*
X39319200Y-11988800D02*
X39319200Y-10083800D01*
X39030401Y-12277599D02*
X39319200Y-11988800D01*
X41859200Y-2463800D02*
X41859200Y-3530600D01*
X41859200Y-3530600D02*
X42773600Y-4445000D01*
X47091600Y-11430000D02*
X47091600Y-9804400D01*
X46244001Y-12277599D02*
X47091600Y-11430000D01*
X46244001Y-12277599D02*
X39030401Y-12277599D01*
X45847000Y-4445000D02*
X46329600Y-4445000D01*
X42773600Y-4445000D02*
X45847000Y-4445000D01*
X46329600Y-4445000D02*
X46990000Y-3784600D01*
X45847000Y-4445000D02*
X46507400Y-4445000D01*
X21656801Y8518399D02*
X21529801Y8518399D01*
X22656800Y7518400D02*
X21656801Y8518399D01*
X21529801Y8518399D02*
X20320000Y9728200D01*
X20320000Y9728200D02*
X20320000Y10744200D01*
X19558000Y11506200D02*
X17576800Y11506200D01*
X20320000Y10744200D02*
X19558000Y11506200D01*
X47421800Y7315200D02*
X47371000Y7264400D01*
X50368200Y7315200D02*
X47421800Y7315200D01*
X50368200Y12039600D02*
X50342800Y12065000D01*
X50368200Y7315200D02*
X50368200Y12039600D01*
X35610800Y5664200D02*
X37211000Y7264400D01*
X20878800Y5664200D02*
X35610800Y5664200D01*
X17576800Y8966200D02*
X20878800Y5664200D01*
X61423600Y-48888600D02*
X61391800Y-48888600D01*
X62396790Y-27443010D02*
X62396790Y-47915410D01*
X61391800Y-48888600D02*
X58058000Y-52222400D01*
X62396790Y-47915410D02*
X61423600Y-48888600D01*
X66381210Y-27443010D02*
X62396790Y-27443010D01*
X82092800Y-15290800D02*
X82092800Y-26365200D01*
X84886800Y-12496800D02*
X82092800Y-15290800D01*
X58058000Y-52222400D02*
X57658000Y-52222400D01*
X84886800Y-10337800D02*
X84886800Y-12496800D01*
X74737810Y-25995210D02*
X75107800Y-26365200D01*
X67829010Y-25995210D02*
X74737810Y-25995210D01*
X67829010Y-25995210D02*
X66381210Y-27443010D01*
X82092800Y-26365200D02*
X75107800Y-26365200D01*
M02*
